<svg xmlns="http://www.w3.org/2000/svg" width="1128" height="336" viewBox="0 0 564 168">
	<defs>
		<radialGradient id="a" cx="113" cy="-12.89" r="59.662" gradientTransform="matrix(0 1.9611 -1.9778 0 5.507 -198.6)" gradientUnits="userSpaceOnUse">
			<stop offset="0" stop-color="#fff" stop-opacity=".098039"/>
			<stop offset="1" stop-color="#fff" stop-opacity="0"/>
		</radialGradient>
	</defs>
	<rect width="560" height="164" x="2" y="2" stroke="#a6a6a6" stroke-width="4" rx="20" ry="20"/>
	<g fill="#fff">
		<path d="M199.26 45.456v-6.6817h-5.4987v-2.766h8.8312v10.681q-1.9495 1.383-4.299 2.0995-2.3494.69983-5.0154.69983-5.8319 0-9.1311-3.3992-3.2825-3.4158-3.2825-9.4977 0-6.0985 3.2825-9.4977 3.2992-3.4158 9.1311-3.4158 2.4327 0 4.6155.59985 2.1995.59985 4.049 1.7662v3.5825q-1.8662-1.5829-3.9657-2.3828-2.0995-.7998-4.4156-.7998-4.5656 0-6.865 2.5494-2.2828 2.5494-2.2828 7.5982 0 5.0321 2.2828 7.5815 2.2994 2.5494 6.865 2.5494 1.7829 0 3.1826-.29993 1.3997-.31659 2.516-.96643z"/>
		<path d="M208.76 24.128h15.729v2.8326h-12.364v7.3649h11.847v2.8326h-11.847v9.0145h12.664v2.8326H208.76v-24.877z"/>
		<path d="M226.91 24.128h21.045v2.8326h-8.8312v22.045h-3.3825v-22.045h-8.8312V24.128z"/>
		<path d="M262.08 24.128h3.3658v24.877H262.08V24.128z"/>
		<path d="M268.7 24.128h21.045v2.8326h-8.8312v22.045h-3.3825v-22.045h-8.8312V24.128z"/>
		<path d="M313.97 26.41q-3.6658 0-5.8319 2.7327-2.1495 2.7327-2.1495 7.4482 0 4.6988 2.1495 7.4315 2.1661 2.7327 5.8319 2.7327t5.7986-2.7327q2.1495-2.7327 2.1495-7.4315 0-4.7155-2.1495-7.4482-2.13-2.732-5.8-2.732zm0-2.7327q5.2321 0 8.3646 3.5158 3.1326 3.4992 3.1326 9.3977 0 5.8819-3.1326 9.3977-3.1326 3.4992-8.3646 3.4992-5.2487 0-8.398-3.4992-3.1326-3.4991-3.1326-9.3977t3.1326-9.3977q3.1492-3.5158 8.398-3.5158z"/>
		<path d="M330.73 24.128h4.5322l11.031 20.812V24.128h3.2659v24.877h-4.5322l-11.031-20.812v20.812H330.73V24.128z"/>
		<path d="M180.8645 135.99843v-8.11767l7.18994-1.3916V78.01503l-7.18994-1.3916v-8.16406h53.76221v18.5083h-10.39063l-.60303-8.07129h-22.03369v18.60108h23.65723v10.43701h-23.65723v18.55469l7.23633 1.3916v8.11767z"/>
		<path d="M243.0227 112.34121v-10.43702h26.16211v10.43702z"/>
		<path d="M277.34887 135.99843v-8.11767l7.28272-1.53077V78.20058l-7.28272-1.57715v-8.16406h29.64112q9.04541 0 15.95703 4.26758 6.91162 4.22119 10.76172 11.73584 3.89648 7.46826 3.89648 17.16308v1.25245q0 9.60205-3.8501 17.11669-3.80371 7.46827-10.66894 11.73584-6.86524 4.26758-15.91065 4.26758zm20.82764-10.34424h8.30322q5.6128 0 9.50928-2.92236 3.89649-2.96875 5.9375-8.11767 2.0874-5.14893 2.0874-11.73584v-1.29883q0-6.67969-2.0874-11.78223-2.04101-5.14893-5.9375-8.0249-3.89648-2.92237-9.50928-2.92237h-8.30322z"/>
		<path d="M344.84155 135.99843v-8.11767l6.49414-1.3916V95.36367l-7.18994-1.3916V85.808h19.80713l.51025 6.21582.0928 1.11328q1.85546-4.08203 4.59228-6.16943 2.73682-2.0874 6.54053-2.0874 1.20605 0 2.64404.23193 1.43799.18555 2.55127.51026l-1.43799 12.47802-6.72607-.37109q-2.87598-.13916-4.68506.97412-1.7627 1.11328-3.1543 3.20068v24.58497l6.49414 1.3916v8.11767z"/>
		<path d="M407.92749 136.97255q-7.42188 0-12.75635-3.24707t-8.16406-8.99902q-2.82959-5.79834-2.82959-13.31299v-.97412q0-7.46826 2.82959-13.22021 2.82959-5.79834 8.11767-9.04541 5.33448-3.29346 12.70996-3.29346 7.46827 0 12.75635 3.29346 5.28809 3.24707 8.11768 8.99902 2.82959 5.75195 2.82959 13.2666v.97412q0 7.51465-2.82959 13.31299-2.82959 5.75195-8.11768 8.99902-5.28808 3.24707-12.66357 3.24707zm0-10.39062q3.52539 0 5.75195-1.90186 2.22656-1.90185 3.29346-5.28808 1.06689-3.43262 1.06689-7.97852v-.97412q0-4.45312-1.06689-7.83936-1.0669-3.43261-3.33985-5.33447-2.22656-1.94824-5.79834-1.94824-3.479 0-5.75195 1.94824-2.27295 1.90186-3.33984 5.33447-1.02051 3.38624-1.02051 7.83936v.97412q0 4.5459 1.02051 7.97852 1.06689 3.43261 3.33984 5.33447 2.27295 1.85547 5.84473 1.85547z"/>
		<path d="M437.15112 135.99843v-8.11767l6.54053-1.3916V95.36367l-7.23633-1.3916V85.808h20.78125v40.68116l6.49414 1.3916v8.11767zm6.07666-60.81299V63.63515h14.00879v11.55029z"/>
		<path d="M487.5271 136.97255q-5.98389 0-10.29785-3.06152-4.26758-3.10791-6.54053-8.62793-2.27295-5.56641-2.27295-12.98828v-.97412q0-7.93213 2.27295-13.86963 2.31933-5.9375 6.58691-9.23096 4.26758-3.33984 10.20508-3.33984 4.12842 0 7.23633 1.66992 3.10791 1.62354 5.38086 4.63867V73.19082l-7.23633-1.39161v-8.16406h20.78125v62.85401l6.49414 1.3916v8.11767h-18.22998l-1.02051-6.12304q-2.36572 3.479-5.65918 5.28808-3.24707 1.80908-7.70019 1.80908zm4.03564-10.52978q2.82959 0 4.96338-1.20606 2.13379-1.20605 3.57178-3.479v-21.2915q-1.3916-2.41211-3.52539-3.71094-2.13379-1.34522-4.917-1.34522-3.38623 0-5.5664 2.04102-2.13379 1.99463-3.1543 5.56641-.97412 3.57177-.97412 8.30322v.97412q0 6.58691 2.22656 10.39062 2.22657 3.75733 7.37549 3.75733z"/>
	</g>
	<path fill="#8ab000" stroke="#769616" stroke-linecap="round" stroke-width="6.579" d="M146.34 25.797 135.16 40.27"/>
	<path fill="#fff" fill-opacity=".29804" d="M146.29 22.5c1.1933.0316 2.0045.49736 2.5809 1.1805-5.334 6.3392-6.2326 7.3463-13.514 16.372-2.683 3.471-5.4779 1.6771-2.7949-1.7939l11.184-14.474c.60261-.80421 1.5397-1.2579 2.5442-1.285z"/>
	<path fill="#263238" fill-opacity=".2" d="M148.89 23.713c.32604.38921 1.4768 2.1174.0592 4.0952l-11.184 14.474c-2.683 3.471-3.026-1.6113-3.026-1.6113s9.8275-11.868 14.151-16.958z"/>
	<path fill="#8ab000" d="M147.01 23.118c1.1531 0 2.526.37263 2.169 2.1016-.27253 1.32-12.265 15.985-12.265 15.985-2.683 3.471-6.5618 1.7797-3.8788-1.6908l11.143-14.402c.68484-.76316 1.6014-1.9568 2.832-1.9942z"/>
	<path fill="#8ab000" stroke="#769616" stroke-linecap="round" stroke-width="6.579" d="M33.655 25.797 44.84 40.27"/>
	<path fill="#fff" fill-opacity=".29804" d="M33.714 22.5c-1.1933.0316-2.0045.49736-2.5809 1.1805 5.334 6.3392 6.2326 7.3463 13.514 16.372 2.683 3.471 5.4779 1.6771 2.7949-1.7939l-11.184-14.472c-.60261-.80421-1.5397-1.2579-2.5442-1.285z"/>
	<path fill="#263238" fill-opacity=".2" d="M31.111 23.713c-.32604.38921-1.4768 2.1174-.0592 4.0952l11.184 14.474c2.683 3.471 3.026-1.6113 3.026-1.6113s-9.8275-11.868-14.151-16.958z"/>
	<path fill="#8ab000" d="M32.995 23.118c-1.1531 0-2.526.37263-2.169 2.1016.27253 1.32 12.265 15.985 12.265 15.985 2.683 3.471 6.5618 1.7797 3.8788-1.6908l-11.143-14.402c-.685-.763-1.602-1.957-2.832-1.994z"/>
	<rect width="100" height="34" x="40" y="35" fill="#aeea00" rx="7.8948" ry="7.8947"/>
	<rect width="100" height="26.316" x="40" y="42.684" fill="#263238" fill-opacity=".2" rx="7.8948" ry="7.8947"/>
	<rect width="100" height="26.316" x="40" y="35.007" fill="#fff" fill-opacity=".29804" rx="7.8948" ry="7.8947"/>
	<rect width="100" height="28.002" x="40" y="38.002" fill="#aeea00" rx="7.8948" ry="6.462"/>
	<rect width="100" height="68" x="40" y="72" fill="#1976d2" rx="7.8948" ry="7.8947"/>
	<rect width="100" height="34.21" x="40" y="105.79" fill="#263238" fill-opacity=".2" rx="7.8948" ry="7.8947"/>
	<rect width="100" height="34.21" x="40" y="71.79" fill="#fff" fill-opacity=".2" rx="7.8948" ry="7.8947"/>
	<rect width="100" height="62" x="40" y="75" fill="#1976d2" rx="7.8948" ry="7.1538"/>
	<path fill="#0d47a1" d="M90 89.61c-7.5807 0-13.999 5.2228-15.877 12.238h8.455c1.4587-2.593 4.1977-4.3431 7.4219-4.3431 4.7703 0 8.5527 3.7824 8.5527 8.5526s-3.7824 8.5526-8.5527 8.5526c-3.4405 0-6.3454-1.9808-7.7097-4.8674h-8.3008c1.6901 7.2783 8.2418 12.762 16.011 12.762 9.0369 0 16.447-7.4105 16.447-16.447 0-9.0369-7.4105-16.447-16.447-16.447z"/>
	<circle cx="90" cy="106.06" r="25.132" fill="none" stroke="#0d47a1" stroke-linecap="round" stroke-width="5"/>
	<ellipse cx="64.67" cy="52.441" fill="#263238" fill-opacity=".2" rx="8.8816" ry="10.197"/>
	<circle cx="64.67" cy="53.757" r="8.8816" fill="#fff"/>
	<ellipse cx="115.99" cy="52.441" fill="#263238" fill-opacity=".2" rx="8.8816" ry="10.197"/>
	<circle cx="115.99" cy="53.757" r="8.8816" fill="#fff"/>
	<path fill="url(#a)" d="M33.715 22.473a3.2898 3.2898 0 0 0-2.6621 5.3359l9.4746 12.262c-.33497.87752-.52734 1.8262-.52734 2.8242v18.211c0 4.3737 3.5208 7.8945 7.8945 7.8945h84.211c4.3737 0 7.8945-3.5209 7.8945-7.8945v-18.211c0-.99858-.19005-1.9482-.52539-2.8262l9.4727-12.26a3.2898 3.2898 0 0 0-2.4336-5.334 3.2898 3.2898 0 0 0-2.7715 1.3106l-9.0137 11.666c-.81-.293-1.69-.456-2.61-.456h-84.211c-.92137 0-1.8004.1636-2.6211.45117l-9.02-11.666a3.2898 3.2898 0 0 0-2.543-1.3125zM47.895 72c-4.3737 0-7.8945 3.5208-7.8945 7.8945v52.211c0 4.3737 3.5208 7.8945 7.8945 7.8945h84.211c4.3737 0 7.8945-3.5208 7.8945-7.8945v-52.211c.01-4.368-3.51-7.889-7.88-7.889h-84.211z"/>
</svg>