<svg width="240" height="80" viewBox="0 0 240 80" xmlns="http://www.w3.org/2000/svg"><defs><clipPath id="satori_bc-id"><path x="0" y="0" width="240" height="80" d="M16,0 h208 a16,16 0 0 1 16,16 v48 a16,16 0 0 1 -16,16 h-208 a16,16 0 0 1 -16,-16 v-48 a16,16 0 0 1 16,-16"/></clipPath></defs><mask id="satori_om-id"><rect x="2" y="2" width="236" height="76" fill="#fff"/><path width="240" height="80" fill="none" stroke="#000" stroke-width="4" d="M4.686,4.686 A16,16 0 0 1 16,0 h208 a16,16 0 0 1 16,16 v48 a16,16 0 0 1 -16,16 h-208 a16,16 0 0 1 -16,-16 v-48 A16,16 0 0 1 4.686,4.686"/></mask><path x="0" y="0" width="240" height="80" fill="black" d="M16,0 h208 a16,16 0 0 1 16,16 v48 a16,16 0 0 1 -16,16 h-208 a16,16 0 0 1 -16,-16 v-48 a16,16 0 0 1 16,-16"/><path width="240" height="80" clip-path="url(#satori_bc-id)" fill="none" stroke="#888A85" stroke-width="4" d="M4.686,4.686 A16,16 0 0 1 16,0 h208 a16,16 0 0 1 16,16 v48 a16,16 0 0 1 -16,16 h-208 a16,16 0 0 1 -16,-16 v-48 A16,16 0 0 1 4.686,4.686"/><clipPath id="satori_cp-id-0"><rect x="16" y="13" width="56" height="55"/></clipPath><mask id="satori_om-id-0"><rect x="16" y="13" width="56" height="55" fill="#fff"/></mask><image x="16" y="13" width="56" height="55" href="data:image/svg+xml;utf8,%3Csvg  version=%221.1%22 xmlns=%22http://www.w3.org/2000/svg%22 width=%2257.479296875%22 height=%2255%22 viewBox=%220 0 66.885 64%22%3E%3Cg transform=%22translate(-30.558 -32)%22%3E%3Cg transform=%22matrix(1.7016 0 0 1.7016 -237.69 -115.36)%22 fill=%22white%22%3E%3Ccircle cx=%22166.69%22 cy=%2295.647%22 r=%229.0478%22 stroke-width=%22.58767%22%3E%3C/circle%3E%3Crect x=%22158.41%22 y=%22107.8%22 width=%2216.412%22 height=%2216.412%22 rx=%224.3765%22 ry=%224.3765%22 stroke-width=%22.58767%22%3E%3C/rect%3E%3Cpath transform=%22matrix(.9259 .53457 .53457 -.9259 99.826 110.69)%22 d=%22m69.514 58.833h-1.7806-10.247a2.4441 2.4441 60 0 1-2.1167-3.6662l6.0139-10.416a2.4441 2.4441 2.522e-7 0 1 4.2333 0l6.0139 10.416a2.4441 2.4441 120 0 1-2.1167 3.6662z%22 stroke-width=%22.55348%22%3E%3C/path%3E%3Cpath d=%22m194.99 116.11c0 0.87946-0.70801 1.5875-1.5875 1.5875h-12.7c-0.87946 0-1.5875-0.70802-1.5875-1.5875s0.70802-1.5875 1.5875-1.5875h12.7c0.87946 0 1.5875 0.70801 1.5875 1.5875zm-7.9375-7.9375c0.87946 0 1.5875 0.70802 1.5875 1.5875v12.7c0 0.87946-0.70802 1.5875-1.5875 1.5875-0.87947 0-1.5875-0.70802-1.5875-1.5875v-12.7c0-0.87947 0.70802-1.5875 1.5875-1.5875z%22 stroke-width=%225.8767%22%3E%3C/path%3E%3C/g%3E%3C/g%3E%3C/svg%3E" preserveAspectRatio="none" clip-path="url(#satori_cp-id-0)" mask="url(#satori_om-id-0)"/><mask id="satori_om-id-0-0"><rect x="16" y="13" width="0" height="55" fill="#fff"/></mask><mask id="satori_om-id-0-0-0"><rect x="16" y="13" width="0" height="55" fill="#fff"/></mask><mask id="satori_om-id-0-0-0-0"><rect x="16" y="13" width="0" height="55" fill="#fff"/></mask><mask id="satori_om-id-0-0-0-1"><rect x="16" y="13" width="0" height="55" fill="#fff"/></mask><mask id="satori_om-id-0-0-0-2"><rect x="16" y="13" width="0" height="55" fill="#fff"/></mask><mask id="satori_om-id-0-0-0-3"><rect x="16" y="13" width="0" height="55" fill="#fff"/></mask><mask id="satori_om-id-1"><rect x="88" y="5" width="132" height="70" fill="#fff"/></mask><path fill="white" d="M99.1 17.9L96.9 17.9Q96.8 17.4 96.6 17.1Q96.3 16.7 96.0 16.4Q95.6 16.2 95.2 16.0Q94.7 15.9 94.2 15.9L94.2 15.9Q93.3 15.9 92.5 16.4Q91.8 16.9 91.4 17.8Q91.0 18.7 91.0 20.0L91.0 20.0Q91.0 21.3 91.4 22.2Q91.8 23.1 92.5 23.6Q93.3 24.1 94.3 24.1L94.3 24.1Q95.1 24.1 95.8 23.7Q96.4 23.4 96.8 22.8Q97.1 22.1 97.1 21.3L97.1 21.3L97.6 21.4L94.5 21.4L94.5 19.7L99.2 19.7L99.2 21.1Q99.2 22.6 98.6 23.7Q97.9 24.8 96.8 25.4Q95.7 26.0 94.2 26.0L94.2 26.0Q92.6 26.0 91.4 25.3Q90.2 24.5 89.5 23.2Q88.9 21.9 88.9 20.0L88.9 20.0Q88.9 18.6 89.3 17.5Q89.7 16.4 90.4 15.6Q91.1 14.8 92.1 14.4Q93.0 14.0 94.2 14.0L94.2 14.0Q95.1 14.0 96.0 14.3Q96.8 14.6 97.5 15.1Q98.1 15.6 98.5 16.3Q99.0 17.0 99.1 17.9L99.1 17.9ZM108.8 25.8L101.2 25.8L101.2 14.2L108.8 14.2L108.8 15.9L103.3 15.9L103.3 19.1L108.4 19.1L108.4 20.9L103.3 20.9L103.3 24.1L108.8 24.1L108.8 25.8ZM114.0 15.9L110.4 15.9L110.4 14.2L119.7 14.2L119.7 15.9L116.1 15.9L116.1 25.8L114.0 25.8L114.0 15.9Z M125.5 14.2L127.6 14.2L127.6 25.8L125.5 25.8L125.5 14.2ZM133.0 15.9L129.4 15.9L129.4 14.2L138.6 14.2L138.6 15.9L135.1 15.9L135.1 25.8L133.0 25.8L133.0 15.9Z M154.8 20L154.8 20Q154.8 21.9 154.1 23.2Q153.4 24.6 152.2 25.3Q151.0 26.0 149.5 26.0L149.5 26.0Q147.9 26.0 146.7 25.3Q145.5 24.6 144.8 23.2Q144.1 21.9 144.1 20L144.1 20Q144.1 18.1 144.8 16.8Q145.5 15.4 146.7 14.7Q147.9 14.0 149.5 14.0L149.5 14.0Q151.0 14.0 152.2 14.7Q153.4 15.4 154.1 16.8Q154.8 18.1 154.8 20ZM152.7 20L152.7 20Q152.7 18.7 152.3 17.8Q151.9 16.9 151.1 16.4Q150.4 15.9 149.5 15.9L149.5 15.9Q148.5 15.9 147.8 16.4Q147.1 16.9 146.6 17.8Q146.2 18.7 146.2 20L146.2 20Q146.2 21.3 146.6 22.2Q147.1 23.1 147.8 23.6Q148.5 24.1 149.5 24.1L149.5 24.1Q150.4 24.1 151.1 23.6Q151.9 23.1 152.3 22.2Q152.7 21.3 152.7 20ZM164.3 14.2L166.4 14.2L166.4 25.8L164.5 25.8L159.0 17.9L158.9 17.9L158.9 25.8L156.8 25.8L156.8 14.2L158.7 14.2L164.2 22.1L164.3 22.1L164.3 14.2Z "/><mask id="satori_om-id-1-1"><rect x="88" y="29" width="132" height="46" fill="#fff"/></mask><path fill="white" d="M95.3 65.1L90.6 65.1L90.6 38.9L107.4 38.9L107.4 42.9L95.3 42.9L95.3 50.0L106.2 50.0L106.2 54.0L95.3 54.0L95.3 65.1ZM111.5 38.9L116.1 38.9L116.1 65.1L111.5 65.1L111.5 38.9ZM126.5 65.5L126.5 65.5Q124.6 65.5 123.1 64.8Q121.6 64.1 120.8 62.8Q119.9 61.5 119.9 59.6L119.9 59.6Q119.9 57.9 120.5 56.8Q121.1 55.7 122.2 55.1Q123.3 54.4 124.6 54.1Q125.9 53.8 127.4 53.6L127.4 53.6Q129.1 53.4 130.2 53.3Q131.2 53.1 131.7 52.8Q132.2 52.5 132.2 51.8L132.2 51.8L132.2 51.8Q132.2 50.3 131.4 49.5Q130.5 48.7 128.9 48.7L128.9 48.7Q127.2 48.7 126.2 49.5Q125.2 50.2 124.9 51.2L124.9 51.2L120.6 50.6Q121.1 48.8 122.2 47.6Q123.4 46.4 125.1 45.8Q126.8 45.2 128.9 45.2L128.9 45.2Q130.3 45.2 131.7 45.5Q133.1 45.9 134.3 46.6Q135.4 47.4 136.2 48.7Q136.9 50.0 136.9 51.9L136.9 51.9L136.9 65.1L132.4 65.1L132.4 62.4L132.3 62.4Q131.8 63.2 131.1 63.9Q130.3 64.6 129.2 65.1Q128.0 65.5 126.5 65.5ZM127.7 62.1L127.7 62.1Q129.1 62.1 130.1 61.5Q131.1 61.0 131.7 60.1Q132.2 59.1 132.2 58.0L132.2 58.0L132.2 55.7Q132.0 55.9 131.5 56.1Q131.0 56.2 130.4 56.3Q129.7 56.4 129.1 56.5Q128.5 56.6 128.0 56.7L128.0 56.7Q127.0 56.8 126.1 57.2Q125.3 57.5 124.9 58.0Q124.4 58.6 124.4 59.5L124.4 59.5Q124.4 60.8 125.3 61.4Q126.3 62.1 127.7 62.1ZM140.0 45.5L151.3 45.5L151.3 49.0L140.0 49.0L140.0 45.5ZM142.8 60.0L142.8 40.8L147.5 40.8L147.5 59.2Q147.5 60.1 147.7 60.6Q148.0 61.1 148.5 61.3Q149.0 61.5 149.6 61.5L149.6 61.5Q150.0 61.5 150.4 61.4Q150.7 61.3 150.9 61.3L150.9 61.3L151.7 64.9Q151.3 65.0 150.6 65.2Q150.0 65.3 149.0 65.4L149.0 65.4Q147.2 65.4 145.8 64.8Q144.4 64.2 143.6 63.0Q142.8 61.8 142.8 60.0L142.8 60.0ZM159.8 53.6L159.8 53.6L159.8 65.1L155.2 65.1L155.2 38.9L159.7 38.9L159.7 48.8L160.0 48.8Q160.7 47.1 162.1 46.2Q163.6 45.2 165.8 45.2L165.8 45.2Q167.8 45.2 169.4 46.1Q170.9 46.9 171.7 48.6Q172.6 50.2 172.6 52.6L172.6 52.6L172.6 65.1L167.9 65.1L167.9 53.3Q167.9 51.3 166.9 50.2Q165.9 49.1 164.1 49.1L164.1 49.1Q162.9 49.1 161.9 49.6Q160.9 50.2 160.4 51.2Q159.8 52.2 159.8 53.6ZM189.8 56.8L189.8 56.8L189.8 45.5L194.4 45.5L194.4 65.1L189.9 65.1L189.9 61.6L189.7 61.6Q189.1 63.3 187.5 64.3Q186.0 65.3 183.8 65.3L183.8 65.3Q181.9 65.3 180.4 64.5Q178.9 63.6 178.1 62.0Q177.3 60.3 177.3 58.0L177.3 58.0L177.3 45.5L181.9 45.5L181.9 57.2Q181.9 59.1 182.9 60.2Q183.9 61.3 185.6 61.3L185.6 61.3Q186.6 61.3 187.6 60.8Q188.5 60.3 189.2 59.3Q189.8 58.3 189.8 56.8ZM203.9 65.1L199.4 65.1L199.4 38.9L204.0 38.9L204.0 48.7L204.2 48.7Q204.6 48.0 205.2 47.2Q205.9 46.4 207.0 45.8Q208.1 45.2 209.8 45.2L209.8 45.2Q212.1 45.2 213.9 46.4Q215.8 47.5 216.8 49.8Q217.9 52.0 217.9 55.3L217.9 55.3Q217.9 58.5 216.9 60.8Q215.8 63.1 214.0 64.2Q212.1 65.4 209.8 65.4L209.8 65.4Q208.1 65.4 207.0 64.9Q205.9 64.3 205.2 63.5Q204.6 62.7 204.2 62.0L204.2 62.0L203.9 62.0L203.9 65.1ZM203.9 55.3L203.9 55.3Q203.9 57.2 204.5 58.6Q205.0 60.0 206.0 60.8Q207.1 61.6 208.5 61.6L208.5 61.6Q210.1 61.6 211.1 60.8Q212.1 60.0 212.7 58.6Q213.2 57.1 213.2 55.3L213.2 55.3Q213.2 53.4 212.7 52.0Q212.1 50.6 211.1 49.8Q210.1 49.0 208.5 49.0L208.5 49.0Q207.0 49.0 206.0 49.8Q205.0 50.6 204.4 52.0Q203.9 53.4 203.9 55.3Z "/></svg>