<svg width="161" height="44" viewBox="0 0 161 44" fill="none" xmlns="http://www.w3.org/2000/svg">
<rect x="1" y="1" width="159" height="42" rx="4" fill="#202020"/>
<rect x="0.5" y="0.5" width="160" height="43" rx="4.5" stroke="black" stroke-opacity="0.1"/>
<g clip-path="url(#clip0_1049_9370)">
<g clip-path="url(#clip1_1049_9370)">
<path d="M10.3438 14.6667C10.3438 14.1604 10.7542 13.75 11.2604 13.75H30.7396C31.2458 13.75 31.6562 14.1604 31.6562 14.6667V28.5313C31.6562 30.6196 29.9633 32.3125 27.875 32.3125H14.125C12.0367 32.3125 10.3438 30.6196 10.3438 28.5313V14.6667Z" fill="url(#paint0_linear_1049_9370)"/>
<mask id="mask0_1049_9370" style="mask-type:alpha" maskUnits="userSpaceOnUse" x="10" y="13" width="22" height="20">
<path d="M10.3438 14.6667C10.3438 14.1604 10.7542 13.75 11.2604 13.75H30.7396C31.2458 13.75 31.6562 14.1604 31.6562 14.6667V28.5313C31.6562 30.6196 29.9633 32.3125 27.875 32.3125H14.125C12.0367 32.3125 10.3438 30.6196 10.3438 28.5313V14.6667Z" fill="url(#paint1_linear_1049_9370)"/>
</mask>
<g mask="url(#mask0_1049_9370)">
<g filter="url(#filter0_dd_1049_9370)">
<path d="M15.8438 14.4375V11.6875H26.1562V14.4375" stroke="url(#paint2_linear_1049_9370)" stroke-width="1.375" stroke-linecap="round"/>
</g>
</g>
<g filter="url(#filter1_dd_1049_9370)">
<path d="M20.6565 18.5625H16.5315V22.6875H20.6565V18.5625Z" fill="#F25022"/>
<path d="M25.4688 18.5625H21.3438V22.6875H25.4688V18.5625Z" fill="#7FBA00"/>
<path d="M25.4688 23.375H21.3438V27.5H25.4688V23.375Z" fill="#FFB900"/>
<path d="M20.6562 23.375H16.5312V27.5H20.6562V23.375Z" fill="#00A4EF"/>
</g>
<path d="M15.8438 14.4375V12.375C15.8438 11.9953 16.1516 11.6875 16.5313 11.6875H25.4688C25.8484 11.6875 26.1562 11.9953 26.1562 12.375V14.4375" stroke="url(#paint3_linear_1049_9370)" stroke-width="1.375" stroke-linecap="round"/>
<rect x="16.5312" y="11" width="8.9375" height="1.375" fill="url(#paint4_linear_1049_9370)"/>
<mask id="mask1_1049_9370" style="mask-type:alpha" maskUnits="userSpaceOnUse" x="16" y="11" width="10" height="2">
<rect x="16.5312" y="11" width="8.9375" height="1.375" fill="url(#paint5_linear_1049_9370)"/>
</mask>
<g mask="url(#mask1_1049_9370)">
<g filter="url(#filter2_dd_1049_9370)">
<rect x="14.5454" y="11.6877" width="1.98611" height="3.4375" fill="#C4C4C4"/>
</g>
</g>
</g>
</g>
<path d="M38.918 17V9.99805H40.8516C42.0853 9.99805 43.0098 10.2829 43.625 10.8525C44.2435 11.4189 44.5527 12.2718 44.5527 13.4111C44.5527 14.4919 44.2093 15.361 43.5225 16.0186C42.8389 16.6729 41.9225 17 40.7734 17H38.918ZM39.7383 10.7402V16.2578H40.7832C41.7012 16.2578 42.4157 16.012 42.9268 15.5205C43.4378 15.029 43.6934 14.3324 43.6934 13.4307C43.6934 12.5322 43.4541 11.86 42.9756 11.4141C42.5003 10.9648 41.7858 10.7402 40.832 10.7402H39.7383ZM47.9121 17.1172C47.1732 17.1172 46.5824 16.8844 46.1396 16.4189C45.7002 15.9502 45.4805 15.3301 45.4805 14.5586C45.4805 13.722 45.7083 13.0677 46.1641 12.5957C46.6198 12.1237 47.2415 11.8861 48.0293 11.8828C48.7747 11.8796 49.3558 12.109 49.7725 12.5713C50.1924 13.0335 50.4023 13.6699 50.4023 14.4805C50.4023 15.2812 50.1761 15.9209 49.7236 16.3994C49.2744 16.8779 48.6706 17.1172 47.9121 17.1172ZM47.9707 16.4434C48.4883 16.4434 48.8854 16.2757 49.1621 15.9404C49.4421 15.6019 49.582 15.125 49.582 14.5098C49.582 13.8815 49.4421 13.3997 49.1621 13.0645C48.8822 12.7259 48.485 12.5566 47.9707 12.5566C47.4564 12.5566 47.0495 12.7324 46.75 13.084C46.4505 13.4355 46.3008 13.9173 46.3008 14.5293C46.3008 15.1217 46.4521 15.5889 46.7549 15.9307C47.0576 16.2725 47.4629 16.4434 47.9707 16.4434ZM57.9805 12L56.4814 17H55.6514L54.6162 13.4111C54.5902 13.32 54.5723 13.2435 54.5625 13.1816C54.556 13.1165 54.5495 13.0417 54.543 12.957H54.5234C54.5169 13.0417 54.5055 13.1149 54.4893 13.1768C54.473 13.2386 54.4502 13.3167 54.4209 13.4111L53.3027 17H52.502L50.9883 12H51.8281L52.8633 15.7598C52.8796 15.8151 52.8926 15.8802 52.9023 15.9551C52.9154 16.0299 52.9251 16.1146 52.9316 16.209H52.9707C52.9772 16.1374 52.987 16.0641 53 15.9893C53.013 15.9111 53.0326 15.8314 53.0586 15.75L54.2109 12H54.9434L55.9785 15.7695C55.9948 15.8314 56.0078 15.8997 56.0176 15.9746C56.0306 16.0462 56.042 16.1276 56.0518 16.2188H56.0908C56.0941 16.1536 56.1022 16.0837 56.1152 16.0088C56.1315 15.9339 56.151 15.8542 56.1738 15.7695L57.1895 12H57.9805ZM63.0586 17H62.2578V14.1484C62.2578 13.6178 62.1602 13.2207 61.9648 12.957C61.7728 12.6901 61.4831 12.5566 61.0957 12.5566C60.6953 12.5566 60.3633 12.708 60.0996 13.0107C59.8392 13.3102 59.709 13.6895 59.709 14.1484V17H58.9082V12H59.709V12.8301H59.7285C59.9173 12.5143 60.1484 12.2783 60.4219 12.1221C60.6953 11.9626 61.0111 11.8828 61.3691 11.8828C61.916 11.8828 62.3343 12.0602 62.624 12.415C62.9137 12.7666 63.0586 13.276 63.0586 13.9434V17ZM64.5723 17V9.59766H65.373V17H64.5723ZM69.084 17.1172C68.3451 17.1172 67.7542 16.8844 67.3115 16.4189C66.8721 15.9502 66.6523 15.3301 66.6523 14.5586C66.6523 13.722 66.8802 13.0677 67.3359 12.5957C67.7917 12.1237 68.4134 11.8861 69.2012 11.8828C69.9466 11.8796 70.5277 12.109 70.9443 12.5713C71.3643 13.0335 71.5742 13.6699 71.5742 14.4805C71.5742 15.2812 71.348 15.9209 70.8955 16.3994C70.4463 16.8779 69.8424 17.1172 69.084 17.1172ZM69.1426 16.4434C69.6602 16.4434 70.0573 16.2757 70.334 15.9404C70.6139 15.6019 70.7539 15.125 70.7539 14.5098C70.7539 13.8815 70.6139 13.3997 70.334 13.0645C70.054 12.7259 69.6569 12.5566 69.1426 12.5566C68.6283 12.5566 68.2214 12.7324 67.9219 13.084C67.6224 13.4355 67.4727 13.9173 67.4727 14.5293C67.4727 15.1217 67.624 15.5889 67.9268 15.9307C68.2295 16.2725 68.6348 16.4434 69.1426 16.4434ZM76.3936 17H75.5928V16.2188H75.5732C75.4007 16.5182 75.1875 16.7428 74.9336 16.8926C74.6829 17.0423 74.39 17.1172 74.0547 17.1172C73.5859 17.1172 73.2067 16.9805 72.917 16.707C72.6273 16.4336 72.4824 16.0706 72.4824 15.6182C72.4824 15.1917 72.6289 14.8385 72.9219 14.5586C73.2148 14.2786 73.6299 14.0996 74.167 14.0215L75.5928 13.8311V13.7188C75.5928 13.2988 75.4951 13.001 75.2998 12.8252C75.1045 12.6462 74.8441 12.5566 74.5186 12.5566C74.2581 12.5566 74.0075 12.6055 73.7666 12.7031C73.5257 12.8008 73.2995 12.9505 73.0879 13.1523L72.6191 12.6689C72.8991 12.3988 73.1969 12.2002 73.5127 12.0732C73.8285 11.9463 74.18 11.8828 74.5674 11.8828C75.1729 11.8828 75.6286 12.0391 75.9346 12.3516C76.2406 12.6608 76.3936 13.1263 76.3936 13.748V17ZM75.5928 14.9688V14.4707L74.3867 14.6367C74.0189 14.6888 73.7422 14.7816 73.5566 14.915C73.3711 15.0485 73.2783 15.2585 73.2783 15.5449C73.2783 15.8444 73.3646 16.0739 73.5371 16.2334C73.7129 16.3896 73.9261 16.4678 74.1768 16.4678C74.6097 16.4678 74.9531 16.3262 75.207 16.043C75.4642 15.7598 75.5928 15.4017 75.5928 14.9688ZM81.3887 16.1504C81.2031 16.4727 80.9671 16.7152 80.6807 16.8779C80.3975 17.0374 80.0605 17.1172 79.6699 17.1172C79.0417 17.1172 78.5387 16.8942 78.1611 16.4482C77.7868 15.999 77.5996 15.3887 77.5996 14.6172C77.5996 13.7904 77.8079 13.1279 78.2246 12.6299C78.6413 12.1318 79.1963 11.8828 79.8896 11.8828C80.2347 11.8828 80.5309 11.9512 80.7783 12.0879C81.029 12.2214 81.2324 12.4232 81.3887 12.6934H81.4082V9.59766H82.209V17H81.4082V16.1504H81.3887ZM78.4199 14.5781C78.4199 15.1543 78.5534 15.61 78.8203 15.9453C79.0905 16.2773 79.4518 16.4434 79.9043 16.4434C80.3535 16.4434 80.7165 16.2822 80.9932 15.96C81.2699 15.6377 81.4082 15.2308 81.4082 14.7393V14.002C81.4082 13.5983 81.2731 13.2565 81.0029 12.9766C80.736 12.6966 80.3991 12.5566 79.9922 12.5566C79.5039 12.5566 79.1198 12.7357 78.8398 13.0938C78.5599 13.4518 78.4199 13.9466 78.4199 14.5781ZM88.9619 10.252C88.8708 10.2227 88.7878 10.2015 88.7129 10.1885C88.6413 10.1755 88.5648 10.1689 88.4834 10.1689C88.21 10.1689 88.0065 10.2422 87.873 10.3887C87.7396 10.5352 87.6729 10.75 87.6729 11.0332V12H88.8447V12.6836H87.6729V17H86.877V12.6836H86.0225V12H86.877V10.9941C86.877 10.5221 87.0218 10.1543 87.3115 9.89062C87.6012 9.6237 87.9984 9.49023 88.5029 9.49023C88.6266 9.49023 88.7389 9.5 88.8398 9.51953C88.9408 9.53581 89.0449 9.56185 89.1523 9.59766L88.9619 10.252ZM92.1748 12.6836C92.113 12.6641 92.0576 12.651 92.0088 12.6445C91.96 12.6348 91.8981 12.6299 91.8232 12.6299C91.4163 12.6299 91.0957 12.804 90.8613 13.1523C90.627 13.4974 90.5098 13.9303 90.5098 14.4512V17H89.709V12H90.5098V12.9912H90.5293C90.6432 12.6396 90.8174 12.3727 91.0518 12.1904C91.2861 12.0049 91.5563 11.9121 91.8623 11.9121C91.9632 11.9121 92.0479 11.917 92.1162 11.9268C92.1878 11.9365 92.2513 11.9512 92.3066 11.9707L92.1748 12.6836ZM95.2754 17.1172C94.5365 17.1172 93.9456 16.8844 93.5029 16.4189C93.0635 15.9502 92.8438 15.3301 92.8438 14.5586C92.8438 13.722 93.0716 13.0677 93.5273 12.5957C93.9831 12.1237 94.6048 11.8861 95.3926 11.8828C96.138 11.8796 96.7191 12.109 97.1357 12.5713C97.5557 13.0335 97.7656 13.6699 97.7656 14.4805C97.7656 15.2812 97.5394 15.9209 97.0869 16.3994C96.6377 16.8779 96.0339 17.1172 95.2754 17.1172ZM95.334 16.4434C95.8516 16.4434 96.2487 16.2757 96.5254 15.9404C96.8053 15.6019 96.9453 15.125 96.9453 14.5098C96.9453 13.8815 96.8053 13.3997 96.5254 13.0645C96.2454 12.7259 95.8483 12.5566 95.334 12.5566C94.8197 12.5566 94.4128 12.7324 94.1133 13.084C93.8138 13.4355 93.6641 13.9173 93.6641 14.5293C93.6641 15.1217 93.8154 15.5889 94.1182 15.9307C94.4209 16.2725 94.8262 16.4434 95.334 16.4434ZM106.145 17H105.344V14.1289C105.344 13.5755 105.257 13.1751 105.085 12.9277C104.916 12.6803 104.629 12.5566 104.226 12.5566C103.884 12.5566 103.592 12.7129 103.352 13.0254C103.114 13.3379 102.995 13.7122 102.995 14.1484V17H102.194V14.0312C102.194 13.5397 102.1 13.1719 101.911 12.9277C101.722 12.6803 101.438 12.5566 101.057 12.5566C100.705 12.5566 100.415 12.7048 100.188 13.001C99.9596 13.2939 99.8457 13.6764 99.8457 14.1484V17H99.0449V12H99.8457V12.791H99.8652C100.044 12.4883 100.262 12.262 100.52 12.1123C100.78 11.9593 101.079 11.8828 101.418 11.8828C101.76 11.8828 102.058 11.9788 102.312 12.1709C102.565 12.3597 102.74 12.6087 102.834 12.918C103.02 12.5729 103.251 12.3141 103.527 12.1416C103.804 11.9691 104.126 11.8828 104.494 11.8828C105.044 11.8828 105.456 12.0521 105.729 12.3906C106.006 12.7292 106.145 13.2386 106.145 13.9189V17ZM112.785 16.9414C112.648 16.9967 112.513 17.0374 112.38 17.0635C112.25 17.0928 112.102 17.1074 111.936 17.1074C111.538 17.1074 111.226 16.9919 110.998 16.7607C110.773 16.5264 110.661 16.1813 110.661 15.7256V12.6836H109.802V12H110.661V10.7793L111.462 10.5205V12H112.722V12.6836H111.462V15.6328C111.462 15.9193 111.512 16.126 111.613 16.2529C111.717 16.3799 111.872 16.4434 112.077 16.4434C112.175 16.4434 112.269 16.432 112.36 16.4092C112.451 16.3864 112.528 16.3604 112.59 16.3311L112.785 16.9414ZM117.941 17H117.141V14.1191C117.141 13.5983 117.043 13.2077 116.848 12.9473C116.656 12.6868 116.366 12.5566 115.979 12.5566C115.588 12.5566 115.259 12.708 114.992 13.0107C114.725 13.3102 114.592 13.696 114.592 14.168V17H113.791V9.59766H114.592V12.8301H114.611C114.803 12.5143 115.036 12.2783 115.31 12.1221C115.583 11.9626 115.897 11.8828 116.252 11.8828C116.815 11.8828 117.237 12.0521 117.517 12.3906C117.8 12.7292 117.941 13.2386 117.941 13.9189V17ZM123.474 14.6807H119.938C119.951 15.2438 120.1 15.6784 120.383 15.9844C120.669 16.2871 121.07 16.4385 121.584 16.4385C121.809 16.4385 122.033 16.4059 122.258 16.3408C122.486 16.2725 122.71 16.165 122.932 16.0186L123.303 16.5898C123.02 16.7721 122.736 16.9056 122.453 16.9902C122.17 17.0749 121.859 17.1172 121.521 17.1172C120.765 17.1172 120.176 16.8926 119.753 16.4434C119.33 15.9941 119.117 15.3675 119.113 14.5635C119.11 13.7594 119.322 13.1117 119.748 12.6201C120.178 12.1286 120.734 11.8828 121.418 11.8828C122.069 11.8828 122.574 12.096 122.932 12.5225C123.293 12.9456 123.474 13.5332 123.474 14.2852V14.6807ZM122.653 14.0264C122.65 13.5641 122.538 13.2044 122.316 12.9473C122.095 12.6868 121.791 12.5566 121.403 12.5566C121.022 12.5566 120.699 12.6901 120.432 12.957C120.168 13.2207 120.007 13.5771 119.948 14.0264H122.653Z" fill="white"/>
<path d="M51.4219 34H49.5781V26.8516C49.5781 26.5286 49.5859 26.1771 49.6016 25.7969C49.6224 25.4115 49.6484 25.0026 49.6797 24.5703H49.6328C49.5703 24.8672 49.5104 25.1224 49.4531 25.3359C49.401 25.5443 49.349 25.7109 49.2969 25.8359L46.0078 34H44.7266L41.4219 25.9062C41.3802 25.7917 41.3281 25.6224 41.2656 25.3984C41.2083 25.1745 41.1458 24.8984 41.0781 24.5703H41.0312C41.0625 24.9453 41.0833 25.3438 41.0938 25.7656C41.1042 26.1823 41.1094 26.6224 41.1094 27.0859V34H39.3906V22.7969H42.0156L44.9297 30.0781C45.0443 30.3542 45.138 30.6094 45.2109 30.8438C45.2891 31.0729 45.349 31.2865 45.3906 31.4844H45.4375C45.5312 31.1875 45.6198 30.9193 45.7031 30.6797C45.7865 30.4401 45.8646 30.2318 45.9375 30.0547L48.8906 22.7969H51.4219V34ZM54.8984 24.4531C54.5651 24.4531 54.2891 24.3464 54.0703 24.1328C53.8516 23.9193 53.7422 23.6562 53.7422 23.3438C53.7422 23.0208 53.8516 22.7552 54.0703 22.5469C54.2891 22.3385 54.5651 22.2344 54.8984 22.2344C55.237 22.2344 55.5156 22.3385 55.7344 22.5469C55.9531 22.7552 56.0625 23.0208 56.0625 23.3438C56.0625 23.6615 55.9531 23.9271 55.7344 24.1406C55.5156 24.349 55.237 24.4531 54.8984 24.4531ZM55.7969 34H53.9766V26H55.7969V34ZM64.1562 33.5078C63.7604 33.7474 63.3672 33.9193 62.9766 34.0234C62.5859 34.1328 62.1615 34.1875 61.7031 34.1875C60.474 34.1875 59.4896 33.8281 58.75 33.1094C58.0156 32.3906 57.6484 31.4141 57.6484 30.1797C57.6484 28.8516 58.0286 27.7917 58.7891 27C59.5547 26.2083 60.5859 25.8125 61.8828 25.8125C62.3359 25.8125 62.7474 25.862 63.1172 25.9609C63.4922 26.0547 63.8724 26.2109 64.2578 26.4297L63.5469 27.6953C63.276 27.5443 63.0104 27.4349 62.75 27.3672C62.4896 27.2943 62.2057 27.2578 61.8984 27.2578C61.1328 27.2578 60.5417 27.5104 60.125 28.0156C59.7083 28.5208 59.5 29.1901 59.5 30.0234C59.5 30.8984 59.724 31.5703 60.1719 32.0391C60.625 32.5078 61.1927 32.7422 61.875 32.7422C62.0833 32.7422 62.3229 32.7057 62.5938 32.6328C62.8646 32.5547 63.138 32.4323 63.4141 32.2656L64.1562 33.5078ZM70.1484 27.5234C70.0495 27.4974 69.9531 27.4792 69.8594 27.4688C69.7708 27.4531 69.6667 27.4453 69.5469 27.4453C68.8958 27.4453 68.3958 27.6849 68.0469 28.1641C67.6979 28.6432 67.5234 29.2682 67.5234 30.0391V34H65.7031V26H67.5234V27.5391H67.5547C67.7422 26.987 68.0182 26.5703 68.3828 26.2891C68.7474 26.0026 69.1771 25.8594 69.6719 25.8594C69.8125 25.8594 69.9375 25.8672 70.0469 25.8828C70.1615 25.8984 70.2708 25.9219 70.375 25.9531L70.1484 27.5234ZM75.1719 34.1875C73.9219 34.1875 72.9297 33.8151 72.1953 33.0703C71.4661 32.3203 71.1016 31.3177 71.1016 30.0625C71.1068 28.7344 71.487 27.6953 72.2422 26.9453C72.9974 26.1901 74.026 25.8125 75.3281 25.8125C76.5833 25.8073 77.5625 26.1771 78.2656 26.9219C78.974 27.6615 79.3281 28.6641 79.3281 29.9297C79.3281 31.2318 78.9531 32.2682 78.2031 33.0391C77.4583 33.8047 76.4479 34.1875 75.1719 34.1875ZM75.2578 32.7422C75.9818 32.7422 76.5312 32.5052 76.9062 32.0312C77.2865 31.5573 77.4766 30.8724 77.4766 29.9766C77.4766 29.0911 77.2865 28.4167 76.9062 27.9531C76.526 27.4896 75.974 27.2578 75.25 27.2578C74.5365 27.2578 73.974 27.5026 73.5625 27.9922C73.1562 28.4818 72.9531 29.1589 72.9531 30.0234C72.9531 30.8932 73.1562 31.5651 73.5625 32.0391C73.9688 32.5078 74.5339 32.7422 75.2578 32.7422ZM80.4062 33.3594L81.1953 32.0781C81.5078 32.2969 81.8385 32.474 82.1875 32.6094C82.5417 32.7396 82.9245 32.8047 83.3359 32.8047C83.7839 32.8047 84.1302 32.724 84.375 32.5625C84.625 32.3958 84.75 32.1484 84.75 31.8203C84.75 31.5599 84.6458 31.3438 84.4375 31.1719C84.2344 30.9948 83.8854 30.849 83.3906 30.7344C82.3906 30.5 81.6875 30.1901 81.2812 29.8047C80.8802 29.4193 80.6797 28.9115 80.6797 28.2812C80.6797 27.5573 80.9609 26.9661 81.5234 26.5078C82.0859 26.0443 82.8229 25.8125 83.7344 25.8125C84.1875 25.8125 84.6198 25.8724 85.0312 25.9922C85.4427 26.1068 85.8438 26.2917 86.2344 26.5469L85.5 27.7969C85.1562 27.5781 84.8411 27.4219 84.5547 27.3281C84.2682 27.2344 83.974 27.1875 83.6719 27.1875C83.2448 27.1875 82.9115 27.2682 82.6719 27.4297C82.4375 27.5859 82.3203 27.8047 82.3203 28.0859C82.3203 28.3828 82.4401 28.6042 82.6797 28.75C82.9245 28.8906 83.3333 29.0286 83.9062 29.1641C84.7708 29.3724 85.4036 29.6745 85.8047 30.0703C86.2057 30.4609 86.4062 30.9844 86.4062 31.6406C86.4062 32.4167 86.1224 33.0365 85.5547 33.5C84.9922 33.9583 84.2292 34.1875 83.2656 34.1875C82.7448 34.1875 82.2448 34.1198 81.7656 33.9844C81.2917 33.8438 80.8385 33.6354 80.4062 33.3594ZM91.6406 34.1875C90.3906 34.1875 89.3984 33.8151 88.6641 33.0703C87.9349 32.3203 87.5703 31.3177 87.5703 30.0625C87.5755 28.7344 87.9557 27.6953 88.7109 26.9453C89.4661 26.1901 90.4948 25.8125 91.7969 25.8125C93.0521 25.8073 94.0312 26.1771 94.7344 26.9219C95.4427 27.6615 95.7969 28.6641 95.7969 29.9297C95.7969 31.2318 95.4219 32.2682 94.6719 33.0391C93.9271 33.8047 92.9167 34.1875 91.6406 34.1875ZM91.7266 32.7422C92.4505 32.7422 93 32.5052 93.375 32.0312C93.7552 31.5573 93.9453 30.8724 93.9453 29.9766C93.9453 29.0911 93.7552 28.4167 93.375 27.9531C92.9948 27.4896 92.4427 27.2578 91.7188 27.2578C91.0052 27.2578 90.4427 27.5026 90.0312 27.9922C89.625 28.4818 89.4219 29.1589 89.4219 30.0234C89.4219 30.8932 89.625 31.5651 90.0312 32.0391C90.4375 32.5078 91.0026 32.7422 91.7266 32.7422ZM101.977 23.5859C101.831 23.5286 101.698 23.4896 101.578 23.4688C101.458 23.4427 101.328 23.4297 101.188 23.4297C100.802 23.4297 100.51 23.5417 100.312 23.7656C100.12 23.9844 100.023 24.3021 100.023 24.7188V26H101.875V27.4219H100.023V34H98.2109V27.4219H96.8516V26H98.2109V24.625C98.2109 23.8125 98.4714 23.1693 98.9922 22.6953C99.5182 22.2161 100.214 21.9766 101.078 21.9766C101.349 21.9766 101.583 21.9948 101.781 22.0312C101.979 22.0677 102.185 22.1198 102.398 22.1875L101.977 23.5859ZM107.523 33.8906C107.289 33.9896 107.044 34.0625 106.789 34.1094C106.534 34.1562 106.26 34.1797 105.969 34.1797C105.229 34.1797 104.659 33.9844 104.258 33.5938C103.862 33.1979 103.664 32.6094 103.664 31.8281V27.4219H102.32V26H103.664V24.0547L105.477 23.5078V26H107.391V27.4219H105.477V31.6797C105.477 32.0703 105.547 32.3516 105.688 32.5234C105.833 32.6953 106.057 32.7812 106.359 32.7812C106.505 32.7812 106.643 32.7656 106.773 32.7344C106.909 32.6979 107.029 32.6536 107.133 32.6016L107.523 33.8906ZM112.609 33.1953L113.438 31.7656C113.943 32.0781 114.414 32.2995 114.852 32.4297C115.289 32.5547 115.779 32.6172 116.32 32.6172C116.966 32.6172 117.474 32.4792 117.844 32.2031C118.219 31.9219 118.406 31.5208 118.406 31C118.406 30.526 118.25 30.1536 117.938 29.8828C117.63 29.6068 117.107 29.3542 116.367 29.125C115.227 28.7865 114.388 28.3672 113.852 27.8672C113.315 27.3672 113.047 26.6901 113.047 25.8359C113.047 24.9089 113.393 24.1406 114.086 23.5312C114.779 22.9167 115.719 22.6094 116.906 22.6094C117.427 22.6094 117.94 22.6667 118.445 22.7812C118.951 22.8958 119.451 23.0729 119.945 23.3125L119.25 24.7969C118.818 24.5729 118.404 24.4141 118.008 24.3203C117.617 24.2266 117.219 24.1797 116.812 24.1797C116.219 24.1797 115.75 24.3099 115.406 24.5703C115.068 24.8307 114.898 25.1979 114.898 25.6719C114.898 26.0938 115.055 26.4271 115.367 26.6719C115.68 26.9115 116.216 27.1484 116.977 27.3828C118.143 27.7318 118.982 28.1667 119.492 28.6875C120.008 29.2083 120.266 29.9245 120.266 30.8359C120.266 31.8151 119.917 32.6198 119.219 33.25C118.521 33.875 117.526 34.1875 116.234 34.1875C115.589 34.1875 114.958 34.1068 114.344 33.9453C113.729 33.7786 113.151 33.5286 112.609 33.1953ZM125.914 33.8906C125.68 33.9896 125.435 34.0625 125.18 34.1094C124.924 34.1562 124.651 34.1797 124.359 34.1797C123.62 34.1797 123.049 33.9844 122.648 33.5938C122.253 33.1979 122.055 32.6094 122.055 31.8281V27.4219H120.711V26H122.055V24.0547L123.867 23.5078V26H125.781V27.4219H123.867V31.6797C123.867 32.0703 123.938 32.3516 124.078 32.5234C124.224 32.6953 124.448 32.7812 124.75 32.7812C124.896 32.7812 125.034 32.7656 125.164 32.7344C125.299 32.6979 125.419 32.6536 125.523 32.6016L125.914 33.8906ZM130.891 34.1875C129.641 34.1875 128.648 33.8151 127.914 33.0703C127.185 32.3203 126.82 31.3177 126.82 30.0625C126.826 28.7344 127.206 27.6953 127.961 26.9453C128.716 26.1901 129.745 25.8125 131.047 25.8125C132.302 25.8073 133.281 26.1771 133.984 26.9219C134.693 27.6615 135.047 28.6641 135.047 29.9297C135.047 31.2318 134.672 32.2682 133.922 33.0391C133.177 33.8047 132.167 34.1875 130.891 34.1875ZM130.977 32.7422C131.701 32.7422 132.25 32.5052 132.625 32.0312C133.005 31.5573 133.195 30.8724 133.195 29.9766C133.195 29.0911 133.005 28.4167 132.625 27.9531C132.245 27.4896 131.693 27.2578 130.969 27.2578C130.255 27.2578 129.693 27.5026 129.281 27.9922C128.875 28.4818 128.672 29.1589 128.672 30.0234C128.672 30.8932 128.875 31.5651 129.281 32.0391C129.688 32.5078 130.253 32.7422 130.977 32.7422ZM141.352 27.5234C141.253 27.4974 141.156 27.4792 141.062 27.4688C140.974 27.4531 140.87 27.4453 140.75 27.4453C140.099 27.4453 139.599 27.6849 139.25 28.1641C138.901 28.6432 138.727 29.2682 138.727 30.0391V34H136.906V26H138.727V27.5391H138.758C138.945 26.987 139.221 26.5703 139.586 26.2891C139.951 26.0026 140.38 25.8594 140.875 25.8594C141.016 25.8594 141.141 25.8672 141.25 25.8828C141.365 25.8984 141.474 25.9219 141.578 25.9531L141.352 27.5234ZM149.594 30.4766H144.133C144.164 31.2318 144.383 31.8073 144.789 32.2031C145.195 32.5938 145.763 32.7891 146.492 32.7891C146.789 32.7891 147.128 32.7292 147.508 32.6094C147.888 32.4896 148.263 32.2969 148.633 32.0312L149.453 33.1641C148.958 33.5234 148.456 33.7839 147.945 33.9453C147.435 34.1068 146.872 34.1875 146.258 34.1875C145.013 34.1875 144.044 33.8307 143.352 33.1172C142.659 32.3984 142.31 31.3958 142.305 30.1094C142.305 28.8281 142.661 27.7917 143.375 27C144.094 26.2083 145.013 25.8125 146.133 25.8125C147.206 25.8125 148.049 26.151 148.664 26.8281C149.284 27.5 149.594 28.4531 149.594 29.6875V30.4766ZM147.836 29.2188C147.836 28.5312 147.685 28.0156 147.383 27.6719C147.086 27.3229 146.664 27.1484 146.117 27.1484C145.602 27.1484 145.161 27.3359 144.797 27.7109C144.438 28.0807 144.216 28.5833 144.133 29.2188H147.836Z" fill="white"/>
<defs>
<filter id="filter0_dd_1049_9370" x="13.7812" y="10.0833" width="14.4375" height="6.875" filterUnits="userSpaceOnUse" color-interpolation-filters="sRGB">
<feFlood flood-opacity="0" result="BackgroundImageFix"/>
<feColorMatrix in="SourceAlpha" type="matrix" values="0 0 0 0 0 0 0 0 0 0 0 0 0 0 0 0 0 0 127 0" result="hardAlpha"/>
<feOffset dy="0.229167"/>
<feGaussianBlur stdDeviation="0.229167"/>
<feColorMatrix type="matrix" values="0 0 0 0 0 0 0 0 0 0 0 0 0 0 0 0 0 0 0.1 0"/>
<feBlend mode="normal" in2="BackgroundImageFix" result="effect1_dropShadow_1049_9370"/>
<feColorMatrix in="SourceAlpha" type="matrix" values="0 0 0 0 0 0 0 0 0 0 0 0 0 0 0 0 0 0 127 0" result="hardAlpha"/>
<feOffset dy="0.458333"/>
<feGaussianBlur stdDeviation="0.6875"/>
<feColorMatrix type="matrix" values="0 0 0 0 0 0 0 0 0 0 0 0 0 0 0 0 0 0 0.2 0"/>
<feBlend mode="normal" in2="effect1_dropShadow_1049_9370" result="effect2_dropShadow_1049_9370"/>
<feBlend mode="normal" in="SourceGraphic" in2="effect2_dropShadow_1049_9370" result="shape"/>
</filter>
<filter id="filter1_dd_1049_9370" x="15.1562" y="17.6458" width="11.6875" height="11.6875" filterUnits="userSpaceOnUse" color-interpolation-filters="sRGB">
<feFlood flood-opacity="0" result="BackgroundImageFix"/>
<feColorMatrix in="SourceAlpha" type="matrix" values="0 0 0 0 0 0 0 0 0 0 0 0 0 0 0 0 0 0 127 0" result="hardAlpha"/>
<feOffset dy="0.229167"/>
<feGaussianBlur stdDeviation="0.229167"/>
<feColorMatrix type="matrix" values="0 0 0 0 1 0 0 0 0 1 0 0 0 0 1 0 0 0 0.6 0"/>
<feBlend mode="normal" in2="BackgroundImageFix" result="effect1_dropShadow_1049_9370"/>
<feColorMatrix in="SourceAlpha" type="matrix" values="0 0 0 0 0 0 0 0 0 0 0 0 0 0 0 0 0 0 127 0" result="hardAlpha"/>
<feOffset dy="0.458333"/>
<feGaussianBlur stdDeviation="0.6875"/>
<feColorMatrix type="matrix" values="0 0 0 0 1 0 0 0 0 1 0 0 0 0 1 0 0 0 0.6 0"/>
<feBlend mode="normal" in2="effect1_dropShadow_1049_9370" result="effect2_dropShadow_1049_9370"/>
<feBlend mode="normal" in="SourceGraphic" in2="effect2_dropShadow_1049_9370" result="shape"/>
</filter>
<filter id="filter2_dd_1049_9370" x="13.1704" y="9.39583" width="15.6594" height="6.18774" filterUnits="userSpaceOnUse" color-interpolation-filters="sRGB">
<feFlood flood-opacity="0" result="BackgroundImageFix"/>
<feColorMatrix in="SourceAlpha" type="matrix" values="0 0 0 0 0 0 0 0 0 0 0 0 0 0 0 0 0 0 127 0" result="hardAlpha"/>
<feOffset dy="-0.916667"/>
<feGaussianBlur stdDeviation="0.229167"/>
<feColorMatrix type="matrix" values="0 0 0 0 0 0 0 0 0 0 0 0 0 0 0 0 0 0 0.1 0"/>
<feBlend mode="normal" in2="BackgroundImageFix" result="effect1_dropShadow_1049_9370"/>
<feColorMatrix in="SourceAlpha" type="matrix" values="0 0 0 0 0 0 0 0 0 0 0 0 0 0 0 0 0 0 127 0" result="hardAlpha"/>
<feOffset dy="-0.916667"/>
<feGaussianBlur stdDeviation="0.6875"/>
<feColorMatrix type="matrix" values="0 0 0 0 0 0 0 0 0 0 0 0 0 0 0 0 0 0 0.2 0"/>
<feBlend mode="normal" in2="effect1_dropShadow_1049_9370" result="effect2_dropShadow_1049_9370"/>
<feBlend mode="normal" in="SourceGraphic" in2="effect2_dropShadow_1049_9370" result="shape"/>
</filter>
<linearGradient id="paint0_linear_1049_9370" x1="15.1875" y1="11.0078" x2="19.6603" y2="31.5495" gradientUnits="userSpaceOnUse">
<stop offset="0.270833" stop-color="white"/>
<stop offset="1" stop-color="#DFDFDF"/>
</linearGradient>
<linearGradient id="paint1_linear_1049_9370" x1="21" y1="13.75" x2="25.0962" y2="32.9541" gradientUnits="userSpaceOnUse">
<stop stop-color="#0078D4"/>
<stop offset="1" stop-color="#114A8B"/>
</linearGradient>
<linearGradient id="paint2_linear_1049_9370" x1="21" y1="11.6875" x2="21.1934" y2="14.6494" gradientUnits="userSpaceOnUse">
<stop stop-color="#28AFEA"/>
<stop offset="1" stop-color="#0078D4"/>
</linearGradient>
<linearGradient id="paint3_linear_1049_9370" x1="21" y1="11.6875" x2="21.1934" y2="14.6494" gradientUnits="userSpaceOnUse">
<stop stop-color="#30DAFF"/>
<stop offset="1" stop-color="#0094D4"/>
</linearGradient>
<linearGradient id="paint4_linear_1049_9370" x1="20.5035" y1="11" x2="20.5035" y2="12.375" gradientUnits="userSpaceOnUse">
<stop stop-color="#22BCFF"/>
<stop offset="1" stop-color="#0088F0"/>
</linearGradient>
<linearGradient id="paint5_linear_1049_9370" x1="20.5035" y1="11" x2="20.5035" y2="12.375" gradientUnits="userSpaceOnUse">
<stop stop-color="#28AFEA"/>
<stop offset="1" stop-color="#3CCBF4"/>
</linearGradient>
<clipPath id="clip0_1049_9370">
<rect width="22" height="22" fill="white" transform="translate(10 11)"/>
</clipPath>
<clipPath id="clip1_1049_9370">
<rect width="22" height="22" fill="white" transform="translate(10 11)"/>
</clipPath>
</defs>
</svg>