<svg width="970" height="250" viewBox="0 0 970 250" fill="none" xmlns="http://www.w3.org/2000/svg">
<rect width="970" height="250" fill="#2F2F2F"/>
<path d="M420.646 172V146.406H429.014C431.791 146.406 433.877 146.98 435.271 148.129C436.678 149.277 437.381 150.977 437.381 153.227C437.381 154.422 437.041 155.482 436.361 156.408C435.682 157.322 434.756 158.031 433.584 158.535C434.967 158.922 436.057 159.66 436.854 160.75C437.662 161.828 438.066 163.117 438.066 164.617C438.066 166.914 437.322 168.719 435.834 170.031C434.346 171.344 432.242 172 429.523 172H420.646ZM424.021 160.029V169.24H429.594C431.164 169.24 432.4 168.836 433.303 168.027C434.217 167.207 434.674 166.082 434.674 164.652C434.674 161.57 432.998 160.029 429.646 160.029H424.021ZM424.021 157.322H429.119C430.596 157.322 431.773 156.953 432.652 156.215C433.543 155.477 433.988 154.475 433.988 153.209C433.988 151.803 433.578 150.783 432.758 150.15C431.938 149.506 430.689 149.184 429.014 149.184H424.021V157.322ZM454.309 170.119C453.043 171.607 451.186 172.352 448.736 172.352C446.709 172.352 445.162 171.766 444.096 170.594C443.041 169.41 442.508 167.664 442.496 165.355V152.98H445.748V165.268C445.748 168.15 446.92 169.592 449.264 169.592C451.748 169.592 453.4 168.666 454.221 166.814V152.98H457.473V172H454.379L454.309 170.119ZM466.842 148.375V152.98H470.393V155.494H466.842V167.289C466.842 168.051 467 168.625 467.316 169.012C467.633 169.387 468.172 169.574 468.934 169.574C469.309 169.574 469.824 169.504 470.48 169.363V172C469.625 172.234 468.793 172.352 467.984 172.352C466.531 172.352 465.436 171.912 464.697 171.033C463.959 170.154 463.59 168.906 463.59 167.289V155.494H460.127V152.98H463.59V148.375H466.842ZM478.619 148.375V152.98H482.17V155.494H478.619V167.289C478.619 168.051 478.777 168.625 479.094 169.012C479.41 169.387 479.949 169.574 480.711 169.574C481.086 169.574 481.602 169.504 482.258 169.363V172C481.402 172.234 480.57 172.352 479.762 172.352C478.309 172.352 477.213 171.912 476.475 171.033C475.736 170.154 475.367 168.906 475.367 167.289V155.494H471.904V152.98H475.367V148.375H478.619ZM493.877 172.352C491.299 172.352 489.201 171.508 487.584 169.82C485.967 168.121 485.158 165.854 485.158 163.018V162.42C485.158 160.533 485.516 158.852 486.23 157.375C486.957 155.887 487.965 154.727 489.254 153.895C490.555 153.051 491.961 152.629 493.473 152.629C495.945 152.629 497.867 153.443 499.238 155.072C500.609 156.701 501.295 159.033 501.295 162.068V163.422H488.41C488.457 165.297 489.002 166.814 490.045 167.975C491.1 169.123 492.436 169.697 494.053 169.697C495.201 169.697 496.174 169.463 496.971 168.994C497.768 168.525 498.465 167.904 499.062 167.131L501.049 168.678C499.455 171.127 497.064 172.352 493.877 172.352ZM493.473 155.301C492.16 155.301 491.059 155.781 490.168 156.742C489.277 157.691 488.727 159.027 488.516 160.75H498.043V160.504C497.949 158.852 497.504 157.574 496.707 156.672C495.91 155.758 494.832 155.301 493.473 155.301ZM514.268 155.898C513.775 155.816 513.242 155.775 512.668 155.775C510.535 155.775 509.088 156.684 508.326 158.5V172H505.074V152.98H508.238L508.291 155.178C509.357 153.479 510.869 152.629 512.826 152.629C513.459 152.629 513.939 152.711 514.268 152.875V155.898ZM529.156 147.76C527.703 147.525 526.531 147.408 525.641 147.408C523.297 147.408 522.125 148.639 522.125 151.1V152.98H526.186V155.494H522.125V172H518.873V155.494H515.867V152.98H518.873V150.906C518.885 148.879 519.453 147.326 520.578 146.248C521.703 145.17 523.303 144.631 525.377 144.631C526.561 144.631 528.904 144.988 532.408 145.703V172H529.156V147.76ZM543.957 167.236L548.387 152.98H551.867L544.221 174.936C543.037 178.1 541.156 179.682 538.578 179.682L537.963 179.629L536.75 179.4V176.764L537.629 176.834C538.73 176.834 539.586 176.611 540.195 176.166C540.816 175.721 541.326 174.906 541.725 173.723L542.445 171.789L535.66 152.98H539.211L543.957 167.236Z" fill="white"/>
<path d="M224.185 196.981H220.766V195.602H224.185C224.847 195.602 225.383 195.496 225.793 195.285C226.203 195.074 226.502 194.781 226.689 194.406C226.883 194.031 226.979 193.604 226.979 193.123C226.979 192.684 226.883 192.271 226.689 191.884C226.502 191.497 226.203 191.187 225.793 190.952C225.383 190.712 224.847 190.592 224.185 190.592H221.161V202H219.465V189.203H224.185C225.151 189.203 225.969 189.37 226.637 189.704C227.305 190.038 227.812 190.501 228.157 191.093C228.503 191.679 228.676 192.35 228.676 193.105C228.676 193.926 228.503 194.626 228.157 195.206C227.812 195.786 227.305 196.229 226.637 196.533C225.969 196.832 225.151 196.981 224.185 196.981ZM230.021 197.351V197.148C230.021 196.463 230.12 195.827 230.319 195.241C230.519 194.649 230.806 194.137 231.181 193.703C231.556 193.264 232.01 192.924 232.543 192.684C233.076 192.438 233.674 192.314 234.336 192.314C235.004 192.314 235.604 192.438 236.138 192.684C236.677 192.924 237.134 193.264 237.509 193.703C237.89 194.137 238.18 194.649 238.379 195.241C238.578 195.827 238.678 196.463 238.678 197.148V197.351C238.678 198.036 238.578 198.672 238.379 199.258C238.18 199.844 237.89 200.356 237.509 200.796C237.134 201.229 236.68 201.569 236.146 201.815C235.619 202.056 235.021 202.176 234.354 202.176C233.686 202.176 233.085 202.056 232.552 201.815C232.019 201.569 231.562 201.229 231.181 200.796C230.806 200.356 230.519 199.844 230.319 199.258C230.12 198.672 230.021 198.036 230.021 197.351ZM231.646 197.148V197.351C231.646 197.825 231.702 198.273 231.813 198.695C231.925 199.111 232.092 199.48 232.314 199.803C232.543 200.125 232.827 200.38 233.167 200.567C233.507 200.749 233.902 200.84 234.354 200.84C234.799 200.84 235.188 200.749 235.522 200.567C235.862 200.38 236.144 200.125 236.366 199.803C236.589 199.48 236.756 199.111 236.867 198.695C236.984 198.273 237.043 197.825 237.043 197.351V197.148C237.043 196.68 236.984 196.237 236.867 195.821C236.756 195.399 236.586 195.027 236.357 194.705C236.135 194.377 235.854 194.119 235.514 193.932C235.18 193.744 234.787 193.65 234.336 193.65C233.891 193.65 233.498 193.744 233.158 193.932C232.824 194.119 232.543 194.377 232.314 194.705C232.092 195.027 231.925 195.399 231.813 195.821C231.702 196.237 231.646 196.68 231.646 197.148ZM243.125 200.312L245.568 192.49H246.641L246.43 194.046L243.942 202H242.896L243.125 200.312ZM241.481 192.49L243.564 200.4L243.714 202H242.615L239.855 192.49H241.481ZM248.979 200.339L250.965 192.49H252.582L249.822 202H248.732L248.979 200.339ZM246.878 192.49L249.269 200.181L249.541 202H248.504L245.946 194.028L245.735 192.49H246.878ZM258.198 202.176C257.536 202.176 256.936 202.064 256.396 201.842C255.863 201.613 255.403 201.294 255.017 200.884C254.636 200.474 254.343 199.987 254.138 199.425C253.933 198.862 253.83 198.247 253.83 197.579V197.21C253.83 196.437 253.944 195.748 254.173 195.145C254.401 194.535 254.712 194.02 255.104 193.598C255.497 193.176 255.942 192.856 256.44 192.64C256.938 192.423 257.454 192.314 257.987 192.314C258.667 192.314 259.253 192.432 259.745 192.666C260.243 192.9 260.65 193.229 260.967 193.65C261.283 194.066 261.518 194.559 261.67 195.127C261.822 195.689 261.898 196.305 261.898 196.973V197.702H254.797V196.375H260.272V196.252C260.249 195.83 260.161 195.42 260.009 195.021C259.862 194.623 259.628 194.295 259.306 194.037C258.983 193.779 258.544 193.65 257.987 193.65C257.618 193.65 257.278 193.729 256.968 193.888C256.657 194.04 256.391 194.269 256.168 194.573C255.945 194.878 255.772 195.25 255.649 195.689C255.526 196.129 255.465 196.636 255.465 197.21V197.579C255.465 198.03 255.526 198.455 255.649 198.854C255.778 199.246 255.963 199.592 256.203 199.891C256.449 200.189 256.745 200.424 257.091 200.594C257.442 200.764 257.841 200.849 258.286 200.849C258.86 200.849 259.347 200.731 259.745 200.497C260.144 200.263 260.492 199.949 260.791 199.557L261.775 200.339C261.57 200.649 261.31 200.945 260.993 201.227C260.677 201.508 260.287 201.736 259.824 201.912C259.367 202.088 258.825 202.176 258.198 202.176ZM265.423 193.984V202H263.797V192.49H265.379L265.423 193.984ZM268.394 192.438L268.385 193.949C268.25 193.92 268.121 193.902 267.998 193.896C267.881 193.885 267.746 193.879 267.594 193.879C267.219 193.879 266.888 193.938 266.601 194.055C266.313 194.172 266.07 194.336 265.871 194.547C265.672 194.758 265.514 195.01 265.396 195.303C265.285 195.59 265.212 195.906 265.177 196.252L264.72 196.516C264.72 195.941 264.775 195.402 264.887 194.898C265.004 194.395 265.183 193.949 265.423 193.562C265.663 193.17 265.968 192.865 266.337 192.648C266.712 192.426 267.157 192.314 267.673 192.314C267.79 192.314 267.925 192.329 268.077 192.358C268.229 192.382 268.335 192.408 268.394 192.438ZM272.463 202H270.837V191.488C270.837 190.803 270.96 190.226 271.206 189.757C271.458 189.282 271.818 188.925 272.287 188.685C272.756 188.438 273.312 188.315 273.957 188.315C274.145 188.315 274.332 188.327 274.52 188.351C274.713 188.374 274.9 188.409 275.082 188.456L274.994 189.783C274.871 189.754 274.73 189.733 274.572 189.722C274.42 189.71 274.268 189.704 274.115 189.704C273.77 189.704 273.471 189.774 273.219 189.915C272.973 190.05 272.785 190.249 272.656 190.513C272.527 190.776 272.463 191.102 272.463 191.488V202ZM274.484 192.49V193.738H269.334V192.49H274.484ZM282.113 199.803V192.49H283.748V202H282.192L282.113 199.803ZM282.421 197.799L283.098 197.781C283.098 198.414 283.03 199 282.896 199.539C282.767 200.072 282.556 200.535 282.263 200.928C281.97 201.32 281.586 201.628 281.111 201.851C280.637 202.067 280.06 202.176 279.38 202.176C278.917 202.176 278.492 202.108 278.105 201.974C277.725 201.839 277.396 201.631 277.121 201.35C276.846 201.068 276.632 200.702 276.479 200.251C276.333 199.8 276.26 199.258 276.26 198.625V192.49H277.886V198.643C277.886 199.07 277.933 199.425 278.026 199.706C278.126 199.981 278.258 200.201 278.422 200.365C278.592 200.523 278.779 200.635 278.984 200.699C279.195 200.764 279.412 200.796 279.635 200.796C280.326 200.796 280.874 200.664 281.278 200.4C281.683 200.131 281.973 199.771 282.148 199.319C282.33 198.862 282.421 198.355 282.421 197.799ZM287.993 188.5V202H286.358V188.5H287.993ZM292.08 200.066V201.376C292.08 201.909 291.945 202.472 291.676 203.063C291.406 203.661 291.028 204.159 290.542 204.558L289.619 203.916C289.807 203.658 289.965 203.395 290.094 203.125C290.223 202.861 290.319 202.586 290.384 202.299C290.454 202.018 290.489 201.719 290.489 201.402V200.066H292.08ZM300.236 194.38V202H298.602V192.49H300.148L300.236 194.38ZM299.902 196.885L299.146 196.858C299.152 196.208 299.237 195.607 299.401 195.057C299.565 194.5 299.809 194.017 300.131 193.606C300.453 193.196 300.854 192.88 301.335 192.657C301.815 192.429 302.372 192.314 303.005 192.314C303.45 192.314 303.86 192.379 304.235 192.508C304.61 192.631 304.936 192.827 305.211 193.097C305.486 193.366 305.7 193.712 305.853 194.134C306.005 194.556 306.081 195.065 306.081 195.663V202H304.455V195.742C304.455 195.244 304.37 194.846 304.2 194.547C304.036 194.248 303.802 194.031 303.497 193.896C303.192 193.756 302.835 193.686 302.425 193.686C301.944 193.686 301.543 193.771 301.221 193.94C300.898 194.11 300.641 194.345 300.447 194.644C300.254 194.942 300.113 195.285 300.025 195.672C299.943 196.053 299.902 196.457 299.902 196.885ZM306.063 195.988L304.974 196.322C304.979 195.801 305.064 195.3 305.229 194.819C305.398 194.339 305.642 193.911 305.958 193.536C306.28 193.161 306.676 192.865 307.145 192.648C307.613 192.426 308.149 192.314 308.753 192.314C309.263 192.314 309.714 192.382 310.106 192.517C310.505 192.651 310.839 192.859 311.108 193.141C311.384 193.416 311.592 193.771 311.732 194.204C311.873 194.638 311.943 195.153 311.943 195.751V202H310.309V195.733C310.309 195.2 310.224 194.787 310.054 194.494C309.89 194.195 309.655 193.987 309.351 193.87C309.052 193.747 308.694 193.686 308.278 193.686C307.921 193.686 307.604 193.747 307.329 193.87C307.054 193.993 306.822 194.163 306.635 194.38C306.447 194.591 306.304 194.834 306.204 195.109C306.11 195.385 306.063 195.678 306.063 195.988ZM316.171 192.49V202H314.536V192.49H316.171ZM314.413 189.968C314.413 189.704 314.492 189.481 314.65 189.3C314.814 189.118 315.055 189.027 315.371 189.027C315.682 189.027 315.919 189.118 316.083 189.3C316.253 189.481 316.338 189.704 316.338 189.968C316.338 190.22 316.253 190.437 316.083 190.618C315.919 190.794 315.682 190.882 315.371 190.882C315.055 190.882 314.814 190.794 314.65 190.618C314.492 190.437 314.413 190.22 314.413 189.968ZM320.407 194.521V202H318.781V192.49H320.319L320.407 194.521ZM320.021 196.885L319.344 196.858C319.35 196.208 319.446 195.607 319.634 195.057C319.821 194.5 320.085 194.017 320.425 193.606C320.765 193.196 321.169 192.88 321.638 192.657C322.112 192.429 322.637 192.314 323.211 192.314C323.68 192.314 324.102 192.379 324.477 192.508C324.852 192.631 325.171 192.83 325.435 193.105C325.704 193.381 325.909 193.738 326.05 194.178C326.19 194.611 326.261 195.142 326.261 195.769V202H324.626V195.751C324.626 195.253 324.553 194.854 324.406 194.556C324.26 194.251 324.046 194.031 323.765 193.896C323.483 193.756 323.138 193.686 322.728 193.686C322.323 193.686 321.954 193.771 321.62 193.94C321.292 194.11 321.008 194.345 320.768 194.644C320.533 194.942 320.349 195.285 320.214 195.672C320.085 196.053 320.021 196.457 320.021 196.885ZM330.497 192.49V202H328.862V192.49H330.497ZM328.739 189.968C328.739 189.704 328.818 189.481 328.977 189.3C329.141 189.118 329.381 189.027 329.697 189.027C330.008 189.027 330.245 189.118 330.409 189.3C330.579 189.481 330.664 189.704 330.664 189.968C330.664 190.22 330.579 190.437 330.409 190.618C330.245 190.794 330.008 190.882 329.697 190.882C329.381 190.882 329.141 190.794 328.977 190.618C328.818 190.437 328.739 190.22 328.739 189.968ZM334.725 194.38V202H333.09V192.49H334.637L334.725 194.38ZM334.391 196.885L333.635 196.858C333.641 196.208 333.726 195.607 333.89 195.057C334.054 194.5 334.297 194.017 334.619 193.606C334.941 193.196 335.343 192.88 335.823 192.657C336.304 192.429 336.86 192.314 337.493 192.314C337.938 192.314 338.349 192.379 338.724 192.508C339.099 192.631 339.424 192.827 339.699 193.097C339.975 193.366 340.188 193.712 340.341 194.134C340.493 194.556 340.569 195.065 340.569 195.663V202H338.943V195.742C338.943 195.244 338.858 194.846 338.688 194.547C338.524 194.248 338.29 194.031 337.985 193.896C337.681 193.756 337.323 193.686 336.913 193.686C336.433 193.686 336.031 193.771 335.709 193.94C335.387 194.11 335.129 194.345 334.936 194.644C334.742 194.942 334.602 195.285 334.514 195.672C334.432 196.053 334.391 196.457 334.391 196.885ZM340.552 195.988L339.462 196.322C339.468 195.801 339.553 195.3 339.717 194.819C339.887 194.339 340.13 193.911 340.446 193.536C340.769 193.161 341.164 192.865 341.633 192.648C342.102 192.426 342.638 192.314 343.241 192.314C343.751 192.314 344.202 192.382 344.595 192.517C344.993 192.651 345.327 192.859 345.597 193.141C345.872 193.416 346.08 193.771 346.221 194.204C346.361 194.638 346.432 195.153 346.432 195.751V202H344.797V195.733C344.797 195.2 344.712 194.787 344.542 194.494C344.378 194.195 344.144 193.987 343.839 193.87C343.54 193.747 343.183 193.686 342.767 193.686C342.409 193.686 342.093 193.747 341.817 193.87C341.542 193.993 341.311 194.163 341.123 194.38C340.936 194.591 340.792 194.834 340.692 195.109C340.599 195.385 340.552 195.678 340.552 195.988ZM354.5 200.374V195.479C354.5 195.104 354.424 194.778 354.271 194.503C354.125 194.222 353.902 194.005 353.604 193.853C353.305 193.7 352.936 193.624 352.496 193.624C352.086 193.624 351.726 193.694 351.415 193.835C351.11 193.976 350.87 194.16 350.694 194.389C350.524 194.617 350.439 194.863 350.439 195.127H348.813C348.813 194.787 348.901 194.45 349.077 194.116C349.253 193.782 349.505 193.48 349.833 193.211C350.167 192.936 350.565 192.719 351.028 192.561C351.497 192.396 352.019 192.314 352.593 192.314C353.284 192.314 353.894 192.432 354.421 192.666C354.954 192.9 355.37 193.255 355.669 193.729C355.974 194.198 356.126 194.787 356.126 195.496V199.926C356.126 200.242 356.152 200.579 356.205 200.937C356.264 201.294 356.349 201.602 356.46 201.859V202H354.764C354.682 201.812 354.617 201.563 354.57 201.253C354.523 200.937 354.5 200.644 354.5 200.374ZM354.781 196.234L354.799 197.377H353.155C352.692 197.377 352.279 197.415 351.916 197.491C351.553 197.562 351.248 197.67 351.002 197.816C350.756 197.963 350.568 198.147 350.439 198.37C350.311 198.587 350.246 198.842 350.246 199.135C350.246 199.434 350.313 199.706 350.448 199.952C350.583 200.198 350.785 200.395 351.055 200.541C351.33 200.682 351.667 200.752 352.065 200.752C352.563 200.752 353.003 200.646 353.384 200.436C353.765 200.225 354.066 199.967 354.289 199.662C354.518 199.357 354.641 199.062 354.658 198.774L355.353 199.557C355.312 199.803 355.2 200.075 355.019 200.374C354.837 200.673 354.594 200.96 354.289 201.235C353.99 201.505 353.633 201.73 353.217 201.912C352.807 202.088 352.344 202.176 351.828 202.176C351.184 202.176 350.618 202.05 350.132 201.798C349.651 201.546 349.276 201.209 349.007 200.787C348.743 200.359 348.611 199.882 348.611 199.354C348.611 198.845 348.711 198.396 348.91 198.01C349.109 197.617 349.396 197.292 349.771 197.034C350.146 196.771 350.598 196.571 351.125 196.437C351.652 196.302 352.241 196.234 352.892 196.234H354.781ZM360.45 188.5V202H358.815V188.5H360.45ZM364.827 192.49V202H363.192V192.49H364.827ZM363.069 189.968C363.069 189.704 363.148 189.481 363.307 189.3C363.471 189.118 363.711 189.027 364.027 189.027C364.338 189.027 364.575 189.118 364.739 189.3C364.909 189.481 364.994 189.704 364.994 189.968C364.994 190.22 364.909 190.437 364.739 190.618C364.575 190.794 364.338 190.882 364.027 190.882C363.711 190.882 363.471 190.794 363.307 190.618C363.148 190.437 363.069 190.22 363.069 189.968ZM372.975 199.478C372.975 199.243 372.922 199.026 372.816 198.827C372.717 198.622 372.509 198.438 372.192 198.273C371.882 198.104 371.413 197.957 370.786 197.834C370.259 197.723 369.781 197.591 369.354 197.438C368.932 197.286 368.571 197.102 368.272 196.885C367.979 196.668 367.754 196.413 367.596 196.12C367.438 195.827 367.358 195.484 367.358 195.092C367.358 194.717 367.44 194.362 367.604 194.028C367.774 193.694 368.012 193.398 368.316 193.141C368.627 192.883 368.999 192.681 369.433 192.534C369.866 192.388 370.35 192.314 370.883 192.314C371.645 192.314 372.295 192.449 372.834 192.719C373.373 192.988 373.786 193.349 374.073 193.8C374.36 194.245 374.504 194.74 374.504 195.285H372.878C372.878 195.021 372.799 194.767 372.641 194.521C372.488 194.269 372.263 194.061 371.964 193.896C371.671 193.732 371.311 193.65 370.883 193.65C370.432 193.65 370.065 193.721 369.784 193.861C369.509 193.996 369.307 194.169 369.178 194.38C369.055 194.591 368.993 194.813 368.993 195.048C368.993 195.224 369.022 195.382 369.081 195.522C369.146 195.657 369.257 195.783 369.415 195.9C369.573 196.012 369.796 196.117 370.083 196.217C370.37 196.316 370.736 196.416 371.182 196.516C371.961 196.691 372.603 196.902 373.106 197.148C373.61 197.395 373.985 197.696 374.231 198.054C374.478 198.411 374.601 198.845 374.601 199.354C374.601 199.771 374.513 200.151 374.337 200.497C374.167 200.843 373.918 201.142 373.59 201.394C373.268 201.64 372.881 201.833 372.43 201.974C371.984 202.108 371.483 202.176 370.927 202.176C370.089 202.176 369.38 202.026 368.8 201.728C368.22 201.429 367.78 201.042 367.481 200.567C367.183 200.093 367.033 199.592 367.033 199.064H368.668C368.691 199.51 368.82 199.864 369.055 200.128C369.289 200.386 369.576 200.57 369.916 200.682C370.256 200.787 370.593 200.84 370.927 200.84C371.372 200.84 371.744 200.781 372.043 200.664C372.348 200.547 372.579 200.386 372.737 200.181C372.896 199.976 372.975 199.741 372.975 199.478ZM380.718 192.49V193.738H375.576V192.49H380.718ZM377.316 190.179H378.942V199.645C378.942 199.967 378.992 200.21 379.092 200.374C379.191 200.538 379.32 200.646 379.479 200.699C379.637 200.752 379.807 200.778 379.988 200.778C380.123 200.778 380.264 200.767 380.41 200.743C380.562 200.714 380.677 200.69 380.753 200.673L380.762 202C380.633 202.041 380.463 202.079 380.252 202.114C380.047 202.155 379.798 202.176 379.505 202.176C379.106 202.176 378.74 202.097 378.406 201.938C378.072 201.78 377.806 201.517 377.606 201.147C377.413 200.772 377.316 200.269 377.316 199.636V190.179ZM384.392 192.49V202H382.757V192.49H384.392ZM382.634 189.968C382.634 189.704 382.713 189.481 382.871 189.3C383.035 189.118 383.275 189.027 383.592 189.027C383.902 189.027 384.14 189.118 384.304 189.3C384.474 189.481 384.559 189.704 384.559 189.968C384.559 190.22 384.474 190.437 384.304 190.618C384.14 190.794 383.902 190.882 383.592 190.882C383.275 190.882 383.035 190.794 382.871 190.618C382.713 190.437 382.634 190.22 382.634 189.968ZM390.808 200.84C391.194 200.84 391.552 200.761 391.88 200.603C392.208 200.444 392.478 200.228 392.688 199.952C392.899 199.671 393.02 199.352 393.049 198.994H394.596C394.566 199.557 394.376 200.081 394.024 200.567C393.679 201.048 393.225 201.438 392.662 201.736C392.1 202.029 391.481 202.176 390.808 202.176C390.093 202.176 389.469 202.05 388.936 201.798C388.408 201.546 387.969 201.2 387.617 200.761C387.271 200.321 387.011 199.817 386.835 199.249C386.665 198.675 386.58 198.068 386.58 197.43V197.061C386.58 196.422 386.665 195.818 386.835 195.25C387.011 194.676 387.271 194.169 387.617 193.729C387.969 193.29 388.408 192.944 388.936 192.692C389.469 192.44 390.093 192.314 390.808 192.314C391.552 192.314 392.202 192.467 392.759 192.771C393.315 193.07 393.752 193.48 394.068 194.002C394.391 194.518 394.566 195.104 394.596 195.76H393.049C393.02 195.367 392.908 195.013 392.715 194.696C392.527 194.38 392.27 194.128 391.941 193.94C391.619 193.747 391.241 193.65 390.808 193.65C390.31 193.65 389.891 193.75 389.551 193.949C389.217 194.143 388.95 194.406 388.751 194.74C388.558 195.068 388.417 195.435 388.329 195.839C388.247 196.237 388.206 196.645 388.206 197.061V197.43C388.206 197.846 388.247 198.256 388.329 198.66C388.411 199.064 388.549 199.431 388.742 199.759C388.941 200.087 389.208 200.351 389.542 200.55C389.882 200.743 390.304 200.84 390.808 200.84ZM397.9 200.066V201.376C397.9 201.909 397.766 202.472 397.496 203.063C397.227 203.661 396.849 204.159 396.362 204.558L395.439 203.916C395.627 203.658 395.785 203.395 395.914 203.125C396.043 202.861 396.14 202.586 396.204 202.299C396.274 202.018 396.31 201.719 396.31 201.402V200.066H397.9ZM408.245 200.84C408.632 200.84 408.989 200.761 409.317 200.603C409.646 200.444 409.915 200.228 410.126 199.952C410.337 199.671 410.457 199.352 410.486 198.994H412.033C412.004 199.557 411.813 200.081 411.462 200.567C411.116 201.048 410.662 201.438 410.1 201.736C409.537 202.029 408.919 202.176 408.245 202.176C407.53 202.176 406.906 202.05 406.373 201.798C405.846 201.546 405.406 201.2 405.055 200.761C404.709 200.321 404.448 199.817 404.272 199.249C404.103 198.675 404.018 198.068 404.018 197.43V197.061C404.018 196.422 404.103 195.818 404.272 195.25C404.448 194.676 404.709 194.169 405.055 193.729C405.406 193.29 405.846 192.944 406.373 192.692C406.906 192.44 407.53 192.314 408.245 192.314C408.989 192.314 409.64 192.467 410.196 192.771C410.753 193.07 411.189 193.48 411.506 194.002C411.828 194.518 412.004 195.104 412.033 195.76H410.486C410.457 195.367 410.346 195.013 410.152 194.696C409.965 194.38 409.707 194.128 409.379 193.94C409.057 193.747 408.679 193.65 408.245 193.65C407.747 193.65 407.328 193.75 406.988 193.949C406.654 194.143 406.388 194.406 406.188 194.74C405.995 195.068 405.854 195.435 405.767 195.839C405.685 196.237 405.644 196.645 405.644 197.061V197.43C405.644 197.846 405.685 198.256 405.767 198.66C405.849 199.064 405.986 199.431 406.18 199.759C406.379 200.087 406.646 200.351 406.979 200.55C407.319 200.743 407.741 200.84 408.245 200.84ZM415.487 193.984V202H413.861V192.49H415.443L415.487 193.984ZM418.458 192.438L418.449 193.949C418.314 193.92 418.186 193.902 418.062 193.896C417.945 193.885 417.811 193.879 417.658 193.879C417.283 193.879 416.952 193.938 416.665 194.055C416.378 194.172 416.135 194.336 415.936 194.547C415.736 194.758 415.578 195.01 415.461 195.303C415.35 195.59 415.276 195.906 415.241 196.252L414.784 196.516C414.784 195.941 414.84 195.402 414.951 194.898C415.068 194.395 415.247 193.949 415.487 193.562C415.728 193.17 416.032 192.865 416.401 192.648C416.776 192.426 417.222 192.314 417.737 192.314C417.854 192.314 417.989 192.329 418.142 192.358C418.294 192.382 418.399 192.408 418.458 192.438ZM419.354 197.351V197.148C419.354 196.463 419.454 195.827 419.653 195.241C419.853 194.649 420.14 194.137 420.515 193.703C420.89 193.264 421.344 192.924 421.877 192.684C422.41 192.438 423.008 192.314 423.67 192.314C424.338 192.314 424.938 192.438 425.472 192.684C426.011 192.924 426.468 193.264 426.843 193.703C427.224 194.137 427.514 194.649 427.713 195.241C427.912 195.827 428.012 196.463 428.012 197.148V197.351C428.012 198.036 427.912 198.672 427.713 199.258C427.514 199.844 427.224 200.356 426.843 200.796C426.468 201.229 426.014 201.569 425.48 201.815C424.953 202.056 424.355 202.176 423.688 202.176C423.02 202.176 422.419 202.056 421.886 201.815C421.353 201.569 420.896 201.229 420.515 200.796C420.14 200.356 419.853 199.844 419.653 199.258C419.454 198.672 419.354 198.036 419.354 197.351ZM420.98 197.148V197.351C420.98 197.825 421.036 198.273 421.147 198.695C421.259 199.111 421.426 199.48 421.648 199.803C421.877 200.125 422.161 200.38 422.501 200.567C422.841 200.749 423.236 200.84 423.688 200.84C424.133 200.84 424.522 200.749 424.856 200.567C425.196 200.38 425.478 200.125 425.7 199.803C425.923 199.48 426.09 199.111 426.201 198.695C426.318 198.273 426.377 197.825 426.377 197.351V197.148C426.377 196.68 426.318 196.237 426.201 195.821C426.09 195.399 425.92 195.027 425.691 194.705C425.469 194.377 425.188 194.119 424.848 193.932C424.514 193.744 424.121 193.65 423.67 193.65C423.225 193.65 422.832 193.744 422.492 193.932C422.158 194.119 421.877 194.377 421.648 194.705C421.426 195.027 421.259 195.399 421.147 195.821C421.036 196.237 420.98 196.68 420.98 197.148ZM435.588 199.478C435.588 199.243 435.535 199.026 435.43 198.827C435.33 198.622 435.122 198.438 434.806 198.273C434.495 198.104 434.026 197.957 433.399 197.834C432.872 197.723 432.395 197.591 431.967 197.438C431.545 197.286 431.185 197.102 430.886 196.885C430.593 196.668 430.367 196.413 430.209 196.12C430.051 195.827 429.972 195.484 429.972 195.092C429.972 194.717 430.054 194.362 430.218 194.028C430.388 193.694 430.625 193.398 430.93 193.141C431.24 192.883 431.612 192.681 432.046 192.534C432.479 192.388 432.963 192.314 433.496 192.314C434.258 192.314 434.908 192.449 435.447 192.719C435.986 192.988 436.399 193.349 436.687 193.8C436.974 194.245 437.117 194.74 437.117 195.285H435.491C435.491 195.021 435.412 194.767 435.254 194.521C435.102 194.269 434.876 194.061 434.577 193.896C434.284 193.732 433.924 193.65 433.496 193.65C433.045 193.65 432.679 193.721 432.397 193.861C432.122 193.996 431.92 194.169 431.791 194.38C431.668 194.591 431.606 194.813 431.606 195.048C431.606 195.224 431.636 195.382 431.694 195.522C431.759 195.657 431.87 195.783 432.028 195.9C432.187 196.012 432.409 196.117 432.696 196.217C432.983 196.316 433.35 196.416 433.795 196.516C434.574 196.691 435.216 196.902 435.72 197.148C436.224 197.395 436.599 197.696 436.845 198.054C437.091 198.411 437.214 198.845 437.214 199.354C437.214 199.771 437.126 200.151 436.95 200.497C436.78 200.843 436.531 201.142 436.203 201.394C435.881 201.64 435.494 201.833 435.043 201.974C434.598 202.108 434.097 202.176 433.54 202.176C432.702 202.176 431.993 202.026 431.413 201.728C430.833 201.429 430.394 201.042 430.095 200.567C429.796 200.093 429.646 199.592 429.646 199.064H431.281C431.305 199.51 431.434 199.864 431.668 200.128C431.902 200.386 432.189 200.57 432.529 200.682C432.869 200.787 433.206 200.84 433.54 200.84C433.985 200.84 434.357 200.781 434.656 200.664C434.961 200.547 435.192 200.386 435.351 200.181C435.509 199.976 435.588 199.741 435.588 199.478ZM444.887 199.478C444.887 199.243 444.834 199.026 444.729 198.827C444.629 198.622 444.421 198.438 444.104 198.273C443.794 198.104 443.325 197.957 442.698 197.834C442.171 197.723 441.693 197.591 441.266 197.438C440.844 197.286 440.483 197.102 440.185 196.885C439.892 196.668 439.666 196.413 439.508 196.12C439.35 195.827 439.271 195.484 439.271 195.092C439.271 194.717 439.353 194.362 439.517 194.028C439.687 193.694 439.924 193.398 440.229 193.141C440.539 192.883 440.911 192.681 441.345 192.534C441.778 192.388 442.262 192.314 442.795 192.314C443.557 192.314 444.207 192.449 444.746 192.719C445.285 192.988 445.698 193.349 445.985 193.8C446.272 194.245 446.416 194.74 446.416 195.285H444.79C444.79 195.021 444.711 194.767 444.553 194.521C444.4 194.269 444.175 194.061 443.876 193.896C443.583 193.732 443.223 193.65 442.795 193.65C442.344 193.65 441.978 193.721 441.696 193.861C441.421 193.996 441.219 194.169 441.09 194.38C440.967 194.591 440.905 194.813 440.905 195.048C440.905 195.224 440.935 195.382 440.993 195.522C441.058 195.657 441.169 195.783 441.327 195.9C441.485 196.012 441.708 196.117 441.995 196.217C442.282 196.316 442.648 196.416 443.094 196.516C443.873 196.691 444.515 196.902 445.019 197.148C445.522 197.395 445.897 197.696 446.144 198.054C446.39 198.411 446.513 198.845 446.513 199.354C446.513 199.771 446.425 200.151 446.249 200.497C446.079 200.843 445.83 201.142 445.502 201.394C445.18 201.64 444.793 201.833 444.342 201.974C443.896 202.108 443.396 202.176 442.839 202.176C442.001 202.176 441.292 202.026 440.712 201.728C440.132 201.429 439.692 201.042 439.394 200.567C439.095 200.093 438.945 199.592 438.945 199.064H440.58C440.604 199.51 440.732 199.864 440.967 200.128C441.201 200.386 441.488 200.57 441.828 200.682C442.168 200.787 442.505 200.84 442.839 200.84C443.284 200.84 443.656 200.781 443.955 200.664C444.26 200.547 444.491 200.386 444.649 200.181C444.808 199.976 444.887 199.741 444.887 199.478ZM452.032 195.892V197.228H447.743V195.892H452.032ZM455.249 194.318V205.656H453.614V192.49H455.108L455.249 194.318ZM461.656 197.166V197.351C461.656 198.042 461.574 198.684 461.41 199.275C461.246 199.861 461.006 200.371 460.689 200.805C460.379 201.238 459.995 201.575 459.538 201.815C459.081 202.056 458.557 202.176 457.965 202.176C457.361 202.176 456.828 202.076 456.365 201.877C455.902 201.678 455.51 201.388 455.188 201.007C454.865 200.626 454.607 200.169 454.414 199.636C454.227 199.103 454.098 198.502 454.027 197.834V196.85C454.098 196.146 454.229 195.517 454.423 194.96C454.616 194.403 454.871 193.929 455.188 193.536C455.51 193.138 455.899 192.836 456.356 192.631C456.813 192.42 457.341 192.314 457.938 192.314C458.536 192.314 459.066 192.432 459.529 192.666C459.992 192.895 460.382 193.223 460.698 193.65C461.015 194.078 461.252 194.591 461.41 195.188C461.574 195.78 461.656 196.439 461.656 197.166ZM460.021 197.351V197.166C460.021 196.691 459.972 196.246 459.872 195.83C459.772 195.408 459.617 195.039 459.406 194.723C459.201 194.4 458.938 194.148 458.615 193.967C458.293 193.779 457.909 193.686 457.464 193.686C457.054 193.686 456.696 193.756 456.392 193.896C456.093 194.037 455.838 194.228 455.627 194.468C455.416 194.702 455.243 194.972 455.108 195.276C454.979 195.575 454.883 195.886 454.818 196.208V198.484C454.936 198.895 455.1 199.281 455.311 199.645C455.521 200.002 455.803 200.292 456.154 200.515C456.506 200.731 456.948 200.84 457.481 200.84C457.921 200.84 458.299 200.749 458.615 200.567C458.938 200.38 459.201 200.125 459.406 199.803C459.617 199.48 459.772 199.111 459.872 198.695C459.972 198.273 460.021 197.825 460.021 197.351ZM465.497 188.5V202H463.862V188.5H465.497ZM473.715 200.374V195.479C473.715 195.104 473.639 194.778 473.486 194.503C473.34 194.222 473.117 194.005 472.818 193.853C472.52 193.7 472.15 193.624 471.711 193.624C471.301 193.624 470.94 193.694 470.63 193.835C470.325 193.976 470.085 194.16 469.909 194.389C469.739 194.617 469.654 194.863 469.654 195.127H468.028C468.028 194.787 468.116 194.45 468.292 194.116C468.468 193.782 468.72 193.48 469.048 193.211C469.382 192.936 469.78 192.719 470.243 192.561C470.712 192.396 471.233 192.314 471.808 192.314C472.499 192.314 473.108 192.432 473.636 192.666C474.169 192.9 474.585 193.255 474.884 193.729C475.188 194.198 475.341 194.787 475.341 195.496V199.926C475.341 200.242 475.367 200.579 475.42 200.937C475.479 201.294 475.563 201.602 475.675 201.859V202H473.979C473.896 201.812 473.832 201.563 473.785 201.253C473.738 200.937 473.715 200.644 473.715 200.374ZM473.996 196.234L474.014 197.377H472.37C471.907 197.377 471.494 197.415 471.131 197.491C470.768 197.562 470.463 197.67 470.217 197.816C469.971 197.963 469.783 198.147 469.654 198.37C469.525 198.587 469.461 198.842 469.461 199.135C469.461 199.434 469.528 199.706 469.663 199.952C469.798 200.198 470 200.395 470.27 200.541C470.545 200.682 470.882 200.752 471.28 200.752C471.778 200.752 472.218 200.646 472.599 200.436C472.979 200.225 473.281 199.967 473.504 199.662C473.732 199.357 473.855 199.062 473.873 198.774L474.567 199.557C474.526 199.803 474.415 200.075 474.233 200.374C474.052 200.673 473.809 200.96 473.504 201.235C473.205 201.505 472.848 201.73 472.432 201.912C472.021 202.088 471.559 202.176 471.043 202.176C470.398 202.176 469.833 202.05 469.347 201.798C468.866 201.546 468.491 201.209 468.222 200.787C467.958 200.359 467.826 199.882 467.826 199.354C467.826 198.845 467.926 198.396 468.125 198.01C468.324 197.617 468.611 197.292 468.986 197.034C469.361 196.771 469.812 196.571 470.34 196.437C470.867 196.302 471.456 196.234 472.106 196.234H473.996ZM481.88 192.49V193.738H476.738V192.49H481.88ZM478.479 190.179H480.104V199.645C480.104 199.967 480.154 200.21 480.254 200.374C480.354 200.538 480.482 200.646 480.641 200.699C480.799 200.752 480.969 200.778 481.15 200.778C481.285 200.778 481.426 200.767 481.572 200.743C481.725 200.714 481.839 200.69 481.915 200.673L481.924 202C481.795 202.041 481.625 202.079 481.414 202.114C481.209 202.155 480.96 202.176 480.667 202.176C480.269 202.176 479.902 202.097 479.568 201.938C479.234 201.78 478.968 201.517 478.769 201.147C478.575 200.772 478.479 200.269 478.479 199.636V190.179ZM486.213 202H484.587V191.488C484.587 190.803 484.71 190.226 484.956 189.757C485.208 189.282 485.568 188.925 486.037 188.685C486.506 188.438 487.062 188.315 487.707 188.315C487.895 188.315 488.082 188.327 488.27 188.351C488.463 188.374 488.65 188.409 488.832 188.456L488.744 189.783C488.621 189.754 488.48 189.733 488.322 189.722C488.17 189.71 488.018 189.704 487.865 189.704C487.52 189.704 487.221 189.774 486.969 189.915C486.723 190.05 486.535 190.249 486.406 190.513C486.277 190.776 486.213 191.102 486.213 191.488V202ZM488.234 192.49V193.738H483.084V192.49H488.234ZM489.614 197.351V197.148C489.614 196.463 489.714 195.827 489.913 195.241C490.112 194.649 490.399 194.137 490.774 193.703C491.149 193.264 491.604 192.924 492.137 192.684C492.67 192.438 493.268 192.314 493.93 192.314C494.598 192.314 495.198 192.438 495.731 192.684C496.271 192.924 496.728 193.264 497.103 193.703C497.483 194.137 497.773 194.649 497.973 195.241C498.172 195.827 498.271 196.463 498.271 197.148V197.351C498.271 198.036 498.172 198.672 497.973 199.258C497.773 199.844 497.483 200.356 497.103 200.796C496.728 201.229 496.273 201.569 495.74 201.815C495.213 202.056 494.615 202.176 493.947 202.176C493.279 202.176 492.679 202.056 492.146 201.815C491.612 201.569 491.155 201.229 490.774 200.796C490.399 200.356 490.112 199.844 489.913 199.258C489.714 198.672 489.614 198.036 489.614 197.351ZM491.24 197.148V197.351C491.24 197.825 491.296 198.273 491.407 198.695C491.519 199.111 491.686 199.48 491.908 199.803C492.137 200.125 492.421 200.38 492.761 200.567C493.101 200.749 493.496 200.84 493.947 200.84C494.393 200.84 494.782 200.749 495.116 200.567C495.456 200.38 495.737 200.125 495.96 199.803C496.183 199.48 496.35 199.111 496.461 198.695C496.578 198.273 496.637 197.825 496.637 197.351V197.148C496.637 196.68 496.578 196.237 496.461 195.821C496.35 195.399 496.18 195.027 495.951 194.705C495.729 194.377 495.447 194.119 495.107 193.932C494.773 193.744 494.381 193.65 493.93 193.65C493.484 193.65 493.092 193.744 492.752 193.932C492.418 194.119 492.137 194.377 491.908 194.705C491.686 195.027 491.519 195.399 491.407 195.821C491.296 196.237 491.24 196.68 491.24 197.148ZM501.937 193.984V202H500.311V192.49H501.893L501.937 193.984ZM504.907 192.438L504.898 193.949C504.764 193.92 504.635 193.902 504.512 193.896C504.395 193.885 504.26 193.879 504.107 193.879C503.732 193.879 503.401 193.938 503.114 194.055C502.827 194.172 502.584 194.336 502.385 194.547C502.186 194.758 502.027 195.01 501.91 195.303C501.799 195.59 501.726 195.906 501.69 196.252L501.233 196.516C501.233 195.941 501.289 195.402 501.4 194.898C501.518 194.395 501.696 193.949 501.937 193.562C502.177 193.17 502.481 192.865 502.851 192.648C503.226 192.426 503.671 192.314 504.187 192.314C504.304 192.314 504.438 192.329 504.591 192.358C504.743 192.382 504.849 192.408 504.907 192.438ZM508.027 194.38V202H506.393V192.49H507.939L508.027 194.38ZM507.693 196.885L506.938 196.858C506.943 196.208 507.028 195.607 507.192 195.057C507.356 194.5 507.6 194.017 507.922 193.606C508.244 193.196 508.646 192.88 509.126 192.657C509.606 192.429 510.163 192.314 510.796 192.314C511.241 192.314 511.651 192.379 512.026 192.508C512.401 192.631 512.727 192.827 513.002 193.097C513.277 193.366 513.491 193.712 513.644 194.134C513.796 194.556 513.872 195.065 513.872 195.663V202H512.246V195.742C512.246 195.244 512.161 194.846 511.991 194.547C511.827 194.248 511.593 194.031 511.288 193.896C510.983 193.756 510.626 193.686 510.216 193.686C509.735 193.686 509.334 193.771 509.012 193.94C508.689 194.11 508.432 194.345 508.238 194.644C508.045 194.942 507.904 195.285 507.816 195.672C507.734 196.053 507.693 196.457 507.693 196.885ZM513.854 195.988L512.765 196.322C512.771 195.801 512.855 195.3 513.02 194.819C513.189 194.339 513.433 193.911 513.749 193.536C514.071 193.161 514.467 192.865 514.936 192.648C515.404 192.426 515.94 192.314 516.544 192.314C517.054 192.314 517.505 192.382 517.897 192.517C518.296 192.651 518.63 192.859 518.899 193.141C519.175 193.416 519.383 193.771 519.523 194.204C519.664 194.638 519.734 195.153 519.734 195.751V202H518.1V195.733C518.1 195.2 518.015 194.787 517.845 194.494C517.681 194.195 517.446 193.987 517.142 193.87C516.843 193.747 516.485 193.686 516.069 193.686C515.712 193.686 515.396 193.747 515.12 193.87C514.845 193.993 514.613 194.163 514.426 194.38C514.238 194.591 514.095 194.834 513.995 195.109C513.901 195.385 513.854 195.678 513.854 195.988ZM523.672 200.066V201.376C523.672 201.909 523.537 202.472 523.268 203.063C522.998 203.661 522.62 204.159 522.134 204.558L521.211 203.916C521.398 203.658 521.557 203.395 521.686 203.125C521.814 202.861 521.911 202.586 521.976 202.299C522.046 202.018 522.081 201.719 522.081 201.402V200.066H523.672ZM529.78 197.351V197.148C529.78 196.463 529.88 195.827 530.079 195.241C530.278 194.649 530.565 194.137 530.94 193.703C531.315 193.264 531.77 192.924 532.303 192.684C532.836 192.438 533.434 192.314 534.096 192.314C534.764 192.314 535.364 192.438 535.897 192.684C536.437 192.924 536.894 193.264 537.269 193.703C537.649 194.137 537.939 194.649 538.139 195.241C538.338 195.827 538.438 196.463 538.438 197.148V197.351C538.438 198.036 538.338 198.672 538.139 199.258C537.939 199.844 537.649 200.356 537.269 200.796C536.894 201.229 536.439 201.569 535.906 201.815C535.379 202.056 534.781 202.176 534.113 202.176C533.445 202.176 532.845 202.056 532.312 201.815C531.778 201.569 531.321 201.229 530.94 200.796C530.565 200.356 530.278 199.844 530.079 199.258C529.88 198.672 529.78 198.036 529.78 197.351ZM531.406 197.148V197.351C531.406 197.825 531.462 198.273 531.573 198.695C531.685 199.111 531.852 199.48 532.074 199.803C532.303 200.125 532.587 200.38 532.927 200.567C533.267 200.749 533.662 200.84 534.113 200.84C534.559 200.84 534.948 200.749 535.282 200.567C535.622 200.38 535.903 200.125 536.126 199.803C536.349 199.48 536.516 199.111 536.627 198.695C536.744 198.273 536.803 197.825 536.803 197.351V197.148C536.803 196.68 536.744 196.237 536.627 195.821C536.516 195.399 536.346 195.027 536.117 194.705C535.895 194.377 535.613 194.119 535.273 193.932C534.939 193.744 534.547 193.65 534.096 193.65C533.65 193.65 533.258 193.744 532.918 193.932C532.584 194.119 532.303 194.377 532.074 194.705C531.852 195.027 531.685 195.399 531.573 195.821C531.462 196.237 531.406 196.68 531.406 197.148ZM542.103 194.318V205.656H540.468V192.49H541.962L542.103 194.318ZM548.51 197.166V197.351C548.51 198.042 548.428 198.684 548.264 199.275C548.1 199.861 547.859 200.371 547.543 200.805C547.232 201.238 546.849 201.575 546.392 201.815C545.935 202.056 545.41 202.176 544.818 202.176C544.215 202.176 543.682 202.076 543.219 201.877C542.756 201.678 542.363 201.388 542.041 201.007C541.719 200.626 541.461 200.169 541.268 199.636C541.08 199.103 540.951 198.502 540.881 197.834V196.85C540.951 196.146 541.083 195.517 541.276 194.96C541.47 194.403 541.725 193.929 542.041 193.536C542.363 193.138 542.753 192.836 543.21 192.631C543.667 192.42 544.194 192.314 544.792 192.314C545.39 192.314 545.92 192.432 546.383 192.666C546.846 192.895 547.235 193.223 547.552 193.65C547.868 194.078 548.105 194.591 548.264 195.188C548.428 195.78 548.51 196.439 548.51 197.166ZM546.875 197.351V197.166C546.875 196.691 546.825 196.246 546.726 195.83C546.626 195.408 546.471 195.039 546.26 194.723C546.055 194.4 545.791 194.148 545.469 193.967C545.146 193.779 544.763 193.686 544.317 193.686C543.907 193.686 543.55 193.756 543.245 193.896C542.946 194.037 542.691 194.228 542.48 194.468C542.27 194.702 542.097 194.972 541.962 195.276C541.833 195.575 541.736 195.886 541.672 196.208V198.484C541.789 198.895 541.953 199.281 542.164 199.645C542.375 200.002 542.656 200.292 543.008 200.515C543.359 200.731 543.802 200.84 544.335 200.84C544.774 200.84 545.152 200.749 545.469 200.567C545.791 200.38 546.055 200.125 546.26 199.803C546.471 199.48 546.626 199.111 546.726 198.695C546.825 198.273 546.875 197.825 546.875 197.351ZM554.53 202.176C553.868 202.176 553.268 202.064 552.729 201.842C552.195 201.613 551.735 201.294 551.349 200.884C550.968 200.474 550.675 199.987 550.47 199.425C550.265 198.862 550.162 198.247 550.162 197.579V197.21C550.162 196.437 550.276 195.748 550.505 195.145C550.733 194.535 551.044 194.02 551.437 193.598C551.829 193.176 552.274 192.856 552.772 192.64C553.271 192.423 553.786 192.314 554.319 192.314C554.999 192.314 555.585 192.432 556.077 192.666C556.575 192.9 556.982 193.229 557.299 193.65C557.615 194.066 557.85 194.559 558.002 195.127C558.154 195.689 558.23 196.305 558.23 196.973V197.702H551.129V196.375H556.604V196.252C556.581 195.83 556.493 195.42 556.341 195.021C556.194 194.623 555.96 194.295 555.638 194.037C555.315 193.779 554.876 193.65 554.319 193.65C553.95 193.65 553.61 193.729 553.3 193.888C552.989 194.04 552.723 194.269 552.5 194.573C552.277 194.878 552.104 195.25 551.981 195.689C551.858 196.129 551.797 196.636 551.797 197.21V197.579C551.797 198.03 551.858 198.455 551.981 198.854C552.11 199.246 552.295 199.592 552.535 199.891C552.781 200.189 553.077 200.424 553.423 200.594C553.774 200.764 554.173 200.849 554.618 200.849C555.192 200.849 555.679 200.731 556.077 200.497C556.476 200.263 556.824 199.949 557.123 199.557L558.107 200.339C557.902 200.649 557.642 200.945 557.325 201.227C557.009 201.508 556.619 201.736 556.156 201.912C555.699 202.088 555.157 202.176 554.53 202.176ZM561.755 194.521V202H560.129V192.49H561.667L561.755 194.521ZM561.368 196.885L560.691 196.858C560.697 196.208 560.794 195.607 560.981 195.057C561.169 194.5 561.433 194.017 561.772 193.606C562.112 193.196 562.517 192.88 562.985 192.657C563.46 192.429 563.984 192.314 564.559 192.314C565.027 192.314 565.449 192.379 565.824 192.508C566.199 192.631 566.519 192.83 566.782 193.105C567.052 193.381 567.257 193.738 567.397 194.178C567.538 194.611 567.608 195.142 567.608 195.769V202H565.974V195.751C565.974 195.253 565.9 194.854 565.754 194.556C565.607 194.251 565.394 194.031 565.112 193.896C564.831 193.756 564.485 193.686 564.075 193.686C563.671 193.686 563.302 193.771 562.968 193.94C562.64 194.11 562.355 194.345 562.115 194.644C561.881 194.942 561.696 195.285 561.562 195.672C561.433 196.053 561.368 196.457 561.368 196.885ZM575.615 199.478C575.615 199.243 575.562 199.026 575.457 198.827C575.357 198.622 575.149 198.438 574.833 198.273C574.522 198.104 574.054 197.957 573.427 197.834C572.899 197.723 572.422 197.591 571.994 197.438C571.572 197.286 571.212 197.102 570.913 196.885C570.62 196.668 570.395 196.413 570.236 196.12C570.078 195.827 569.999 195.484 569.999 195.092C569.999 194.717 570.081 194.362 570.245 194.028C570.415 193.694 570.652 193.398 570.957 193.141C571.268 192.883 571.64 192.681 572.073 192.534C572.507 192.388 572.99 192.314 573.523 192.314C574.285 192.314 574.936 192.449 575.475 192.719C576.014 192.988 576.427 193.349 576.714 193.8C577.001 194.245 577.145 194.74 577.145 195.285H575.519C575.519 195.021 575.439 194.767 575.281 194.521C575.129 194.269 574.903 194.061 574.604 193.896C574.312 193.732 573.951 193.65 573.523 193.65C573.072 193.65 572.706 193.721 572.425 193.861C572.149 193.996 571.947 194.169 571.818 194.38C571.695 194.591 571.634 194.813 571.634 195.048C571.634 195.224 571.663 195.382 571.722 195.522C571.786 195.657 571.897 195.783 572.056 195.9C572.214 196.012 572.437 196.117 572.724 196.217C573.011 196.316 573.377 196.416 573.822 196.516C574.602 196.691 575.243 196.902 575.747 197.148C576.251 197.395 576.626 197.696 576.872 198.054C577.118 198.411 577.241 198.845 577.241 199.354C577.241 199.771 577.153 200.151 576.978 200.497C576.808 200.843 576.559 201.142 576.23 201.394C575.908 201.64 575.521 201.833 575.07 201.974C574.625 202.108 574.124 202.176 573.567 202.176C572.729 202.176 572.021 202.026 571.44 201.728C570.86 201.429 570.421 201.042 570.122 200.567C569.823 200.093 569.674 199.592 569.674 199.064H571.309C571.332 199.51 571.461 199.864 571.695 200.128C571.93 200.386 572.217 200.57 572.557 200.682C572.896 200.787 573.233 200.84 573.567 200.84C574.013 200.84 574.385 200.781 574.684 200.664C574.988 200.547 575.22 200.386 575.378 200.181C575.536 199.976 575.615 199.741 575.615 199.478ZM578.946 197.351V197.148C578.946 196.463 579.046 195.827 579.245 195.241C579.444 194.649 579.731 194.137 580.106 193.703C580.481 193.264 580.936 192.924 581.469 192.684C582.002 192.438 582.6 192.314 583.262 192.314C583.93 192.314 584.53 192.438 585.063 192.684C585.603 192.924 586.06 193.264 586.435 193.703C586.815 194.137 587.105 194.649 587.305 195.241C587.504 195.827 587.604 196.463 587.604 197.148V197.351C587.604 198.036 587.504 198.672 587.305 199.258C587.105 199.844 586.815 200.356 586.435 200.796C586.06 201.229 585.605 201.569 585.072 201.815C584.545 202.056 583.947 202.176 583.279 202.176C582.611 202.176 582.011 202.056 581.478 201.815C580.944 201.569 580.487 201.229 580.106 200.796C579.731 200.356 579.444 199.844 579.245 199.258C579.046 198.672 578.946 198.036 578.946 197.351ZM580.572 197.148V197.351C580.572 197.825 580.628 198.273 580.739 198.695C580.851 199.111 581.018 199.48 581.24 199.803C581.469 200.125 581.753 200.38 582.093 200.567C582.433 200.749 582.828 200.84 583.279 200.84C583.725 200.84 584.114 200.749 584.448 200.567C584.788 200.38 585.069 200.125 585.292 199.803C585.515 199.48 585.682 199.111 585.793 198.695C585.91 198.273 585.969 197.825 585.969 197.351V197.148C585.969 196.68 585.91 196.237 585.793 195.821C585.682 195.399 585.512 195.027 585.283 194.705C585.061 194.377 584.779 194.119 584.439 193.932C584.105 193.744 583.713 193.65 583.262 193.65C582.816 193.65 582.424 193.744 582.084 193.932C581.75 194.119 581.469 194.377 581.24 194.705C581.018 195.027 580.851 195.399 580.739 195.821C580.628 196.237 580.572 196.68 580.572 197.148ZM595.461 199.803V192.49H597.096V202H595.54L595.461 199.803ZM595.769 197.799L596.445 197.781C596.445 198.414 596.378 199 596.243 199.539C596.114 200.072 595.903 200.535 595.61 200.928C595.317 201.32 594.934 201.628 594.459 201.851C593.984 202.067 593.407 202.176 592.728 202.176C592.265 202.176 591.84 202.108 591.453 201.974C591.072 201.839 590.744 201.631 590.469 201.35C590.193 201.068 589.979 200.702 589.827 200.251C589.681 199.8 589.607 199.258 589.607 198.625V192.49H591.233V198.643C591.233 199.07 591.28 199.425 591.374 199.706C591.474 199.981 591.605 200.201 591.77 200.365C591.939 200.523 592.127 200.635 592.332 200.699C592.543 200.764 592.76 200.796 592.982 200.796C593.674 200.796 594.222 200.664 594.626 200.4C595.03 200.131 595.32 199.771 595.496 199.319C595.678 198.862 595.769 198.355 595.769 197.799ZM601.2 193.984V202H599.574V192.49H601.156L601.2 193.984ZM604.171 192.438L604.162 193.949C604.027 193.92 603.898 193.902 603.775 193.896C603.658 193.885 603.523 193.879 603.371 193.879C602.996 193.879 602.665 193.938 602.378 194.055C602.091 194.172 601.848 194.336 601.648 194.547C601.449 194.758 601.291 195.01 601.174 195.303C601.062 195.59 600.989 195.906 600.954 196.252L600.497 196.516C600.497 195.941 600.553 195.402 600.664 194.898C600.781 194.395 600.96 193.949 601.2 193.562C601.44 193.17 601.745 192.865 602.114 192.648C602.489 192.426 602.935 192.314 603.45 192.314C603.567 192.314 603.702 192.329 603.854 192.358C604.007 192.382 604.112 192.408 604.171 192.438ZM609.304 200.84C609.69 200.84 610.048 200.761 610.376 200.603C610.704 200.444 610.974 200.228 611.185 199.952C611.396 199.671 611.516 199.352 611.545 198.994H613.092C613.062 199.557 612.872 200.081 612.521 200.567C612.175 201.048 611.721 201.438 611.158 201.736C610.596 202.029 609.978 202.176 609.304 202.176C608.589 202.176 607.965 202.05 607.432 201.798C606.904 201.546 606.465 201.2 606.113 200.761C605.768 200.321 605.507 199.817 605.331 199.249C605.161 198.675 605.076 198.068 605.076 197.43V197.061C605.076 196.422 605.161 195.818 605.331 195.25C605.507 194.676 605.768 194.169 606.113 193.729C606.465 193.29 606.904 192.944 607.432 192.692C607.965 192.44 608.589 192.314 609.304 192.314C610.048 192.314 610.698 192.467 611.255 192.771C611.812 193.07 612.248 193.48 612.564 194.002C612.887 194.518 613.062 195.104 613.092 195.76H611.545C611.516 195.367 611.404 195.013 611.211 194.696C611.023 194.38 610.766 194.128 610.438 193.94C610.115 193.747 609.737 193.65 609.304 193.65C608.806 193.65 608.387 193.75 608.047 193.949C607.713 194.143 607.446 194.406 607.247 194.74C607.054 195.068 606.913 195.435 606.825 195.839C606.743 196.237 606.702 196.645 606.702 197.061V197.43C606.702 197.846 606.743 198.256 606.825 198.66C606.907 199.064 607.045 199.431 607.238 199.759C607.438 200.087 607.704 200.351 608.038 200.55C608.378 200.743 608.8 200.84 609.304 200.84ZM618.866 202.176C618.204 202.176 617.604 202.064 617.064 201.842C616.531 201.613 616.071 201.294 615.685 200.884C615.304 200.474 615.011 199.987 614.806 199.425C614.601 198.862 614.498 198.247 614.498 197.579V197.21C614.498 196.437 614.612 195.748 614.841 195.145C615.069 194.535 615.38 194.02 615.772 193.598C616.165 193.176 616.61 192.856 617.108 192.64C617.606 192.423 618.122 192.314 618.655 192.314C619.335 192.314 619.921 192.432 620.413 192.666C620.911 192.9 621.318 193.229 621.635 193.65C621.951 194.066 622.186 194.559 622.338 195.127C622.49 195.689 622.566 196.305 622.566 196.973V197.702H615.465V196.375H620.94V196.252C620.917 195.83 620.829 195.42 620.677 195.021C620.53 194.623 620.296 194.295 619.974 194.037C619.651 193.779 619.212 193.65 618.655 193.65C618.286 193.65 617.946 193.729 617.636 193.888C617.325 194.04 617.059 194.269 616.836 194.573C616.613 194.878 616.44 195.25 616.317 195.689C616.194 196.129 616.133 196.636 616.133 197.21V197.579C616.133 198.03 616.194 198.455 616.317 198.854C616.446 199.246 616.631 199.592 616.871 199.891C617.117 200.189 617.413 200.424 617.759 200.594C618.11 200.764 618.509 200.849 618.954 200.849C619.528 200.849 620.015 200.731 620.413 200.497C620.812 200.263 621.16 199.949 621.459 199.557L622.443 200.339C622.238 200.649 621.978 200.945 621.661 201.227C621.345 201.508 620.955 201.736 620.492 201.912C620.035 202.088 619.493 202.176 618.866 202.176ZM630.556 194.521V202H628.93V192.49H630.468L630.556 194.521ZM630.169 196.885L629.492 196.858C629.498 196.208 629.595 195.607 629.782 195.057C629.97 194.5 630.233 194.017 630.573 193.606C630.913 193.196 631.317 192.88 631.786 192.657C632.261 192.429 632.785 192.314 633.359 192.314C633.828 192.314 634.25 192.379 634.625 192.508C635 192.631 635.319 192.83 635.583 193.105C635.853 193.381 636.058 193.738 636.198 194.178C636.339 194.611 636.409 195.142 636.409 195.769V202H634.774V195.751C634.774 195.253 634.701 194.854 634.555 194.556C634.408 194.251 634.194 194.031 633.913 193.896C633.632 193.756 633.286 193.686 632.876 193.686C632.472 193.686 632.103 193.771 631.769 193.94C631.44 194.11 631.156 194.345 630.916 194.644C630.682 194.942 630.497 195.285 630.362 195.672C630.233 196.053 630.169 196.457 630.169 196.885ZM638.448 197.351V197.148C638.448 196.463 638.548 195.827 638.747 195.241C638.946 194.649 639.233 194.137 639.608 193.703C639.983 193.264 640.438 192.924 640.971 192.684C641.504 192.438 642.102 192.314 642.764 192.314C643.432 192.314 644.032 192.438 644.565 192.684C645.104 192.924 645.562 193.264 645.937 193.703C646.317 194.137 646.607 194.649 646.807 195.241C647.006 195.827 647.105 196.463 647.105 197.148V197.351C647.105 198.036 647.006 198.672 646.807 199.258C646.607 199.844 646.317 200.356 645.937 200.796C645.562 201.229 645.107 201.569 644.574 201.815C644.047 202.056 643.449 202.176 642.781 202.176C642.113 202.176 641.513 202.056 640.979 201.815C640.446 201.569 639.989 201.229 639.608 200.796C639.233 200.356 638.946 199.844 638.747 199.258C638.548 198.672 638.448 198.036 638.448 197.351ZM640.074 197.148V197.351C640.074 197.825 640.13 198.273 640.241 198.695C640.353 199.111 640.52 199.48 640.742 199.803C640.971 200.125 641.255 200.38 641.595 200.567C641.935 200.749 642.33 200.84 642.781 200.84C643.227 200.84 643.616 200.749 643.95 200.567C644.29 200.38 644.571 200.125 644.794 199.803C645.017 199.48 645.184 199.111 645.295 198.695C645.412 198.273 645.471 197.825 645.471 197.351V197.148C645.471 196.68 645.412 196.237 645.295 195.821C645.184 195.399 645.014 195.027 644.785 194.705C644.562 194.377 644.281 194.119 643.941 193.932C643.607 193.744 643.215 193.65 642.764 193.65C642.318 193.65 641.926 193.744 641.586 193.932C641.252 194.119 640.971 194.377 640.742 194.705C640.52 195.027 640.353 195.399 640.241 195.821C640.13 196.237 640.074 196.68 640.074 197.148ZM653.126 192.49V193.738H647.984V192.49H653.126ZM649.725 190.179H651.351V199.645C651.351 199.967 651.4 200.21 651.5 200.374C651.6 200.538 651.729 200.646 651.887 200.699C652.045 200.752 652.215 200.778 652.396 200.778C652.531 200.778 652.672 200.767 652.818 200.743C652.971 200.714 653.085 200.69 653.161 200.673L653.17 202C653.041 202.041 652.871 202.079 652.66 202.114C652.455 202.155 652.206 202.176 651.913 202.176C651.515 202.176 651.148 202.097 650.814 201.938C650.48 201.78 650.214 201.517 650.015 201.147C649.821 200.772 649.725 200.269 649.725 199.636V190.179ZM658.979 202.176C658.317 202.176 657.717 202.064 657.178 201.842C656.645 201.613 656.185 201.294 655.798 200.884C655.417 200.474 655.124 199.987 654.919 199.425C654.714 198.862 654.611 198.247 654.611 197.579V197.21C654.611 196.437 654.726 195.748 654.954 195.145C655.183 194.535 655.493 194.02 655.886 193.598C656.278 193.176 656.724 192.856 657.222 192.64C657.72 192.423 658.235 192.314 658.769 192.314C659.448 192.314 660.034 192.432 660.526 192.666C661.024 192.9 661.432 193.229 661.748 193.65C662.064 194.066 662.299 194.559 662.451 195.127C662.604 195.689 662.68 196.305 662.68 196.973V197.702H655.578V196.375H661.054V196.252C661.03 195.83 660.942 195.42 660.79 195.021C660.644 194.623 660.409 194.295 660.087 194.037C659.765 193.779 659.325 193.65 658.769 193.65C658.399 193.65 658.06 193.729 657.749 193.888C657.438 194.04 657.172 194.269 656.949 194.573C656.727 194.878 656.554 195.25 656.431 195.689C656.308 196.129 656.246 196.636 656.246 197.21V197.579C656.246 198.03 656.308 198.455 656.431 198.854C656.56 199.246 656.744 199.592 656.984 199.891C657.23 200.189 657.526 200.424 657.872 200.594C658.224 200.764 658.622 200.849 659.067 200.849C659.642 200.849 660.128 200.731 660.526 200.497C660.925 200.263 661.273 199.949 661.572 199.557L662.557 200.339C662.352 200.649 662.091 200.945 661.774 201.227C661.458 201.508 661.068 201.736 660.605 201.912C660.148 202.088 659.606 202.176 658.979 202.176ZM667.962 195.892V197.228H663.673V195.892H667.962ZM673.534 192.49V193.738H668.393V192.49H673.534ZM670.133 190.179H671.759V199.645C671.759 199.967 671.809 200.21 671.908 200.374C672.008 200.538 672.137 200.646 672.295 200.699C672.453 200.752 672.623 200.778 672.805 200.778C672.939 200.778 673.08 200.767 673.227 200.743C673.379 200.714 673.493 200.69 673.569 200.673L673.578 202C673.449 202.041 673.279 202.079 673.068 202.114C672.863 202.155 672.614 202.176 672.321 202.176C671.923 202.176 671.557 202.097 671.223 201.938C670.889 201.78 670.622 201.517 670.423 201.147C670.229 200.772 670.133 200.269 670.133 199.636V190.179ZM681.049 200.374V195.479C681.049 195.104 680.973 194.778 680.82 194.503C680.674 194.222 680.451 194.005 680.152 193.853C679.854 193.7 679.484 193.624 679.045 193.624C678.635 193.624 678.274 193.694 677.964 193.835C677.659 193.976 677.419 194.16 677.243 194.389C677.073 194.617 676.988 194.863 676.988 195.127H675.362C675.362 194.787 675.45 194.45 675.626 194.116C675.802 193.782 676.054 193.48 676.382 193.211C676.716 192.936 677.114 192.719 677.577 192.561C678.046 192.396 678.567 192.314 679.142 192.314C679.833 192.314 680.442 192.432 680.97 192.666C681.503 192.9 681.919 193.255 682.218 193.729C682.522 194.198 682.675 194.787 682.675 195.496V199.926C682.675 200.242 682.701 200.579 682.754 200.937C682.812 201.294 682.897 201.602 683.009 201.859V202H681.312C681.23 201.812 681.166 201.563 681.119 201.253C681.072 200.937 681.049 200.644 681.049 200.374ZM681.33 196.234L681.348 197.377H679.704C679.241 197.377 678.828 197.415 678.465 197.491C678.102 197.562 677.797 197.67 677.551 197.816C677.305 197.963 677.117 198.147 676.988 198.37C676.859 198.587 676.795 198.842 676.795 199.135C676.795 199.434 676.862 199.706 676.997 199.952C677.132 200.198 677.334 200.395 677.604 200.541C677.879 200.682 678.216 200.752 678.614 200.752C679.112 200.752 679.552 200.646 679.933 200.436C680.313 200.225 680.615 199.967 680.838 199.662C681.066 199.357 681.189 199.062 681.207 198.774L681.901 199.557C681.86 199.803 681.749 200.075 681.567 200.374C681.386 200.673 681.143 200.96 680.838 201.235C680.539 201.505 680.182 201.73 679.766 201.912C679.355 202.088 678.893 202.176 678.377 202.176C677.732 202.176 677.167 202.05 676.681 201.798C676.2 201.546 675.825 201.209 675.556 200.787C675.292 200.359 675.16 199.882 675.16 199.354C675.16 198.845 675.26 198.396 675.459 198.01C675.658 197.617 675.945 197.292 676.32 197.034C676.695 196.771 677.146 196.571 677.674 196.437C678.201 196.302 678.79 196.234 679.44 196.234H681.33ZM686.867 188.5V202H685.232V188.5H686.867ZM692.677 192.49L688.528 196.929L686.208 199.337L686.076 197.605L687.737 195.619L690.69 192.49H692.677ZM691.191 202L687.799 197.465L688.643 196.015L693.107 202H691.191ZM696.122 192.49V202H694.487V192.49H696.122ZM694.364 189.968C694.364 189.704 694.443 189.481 694.602 189.3C694.766 189.118 695.006 189.027 695.322 189.027C695.633 189.027 695.87 189.118 696.034 189.3C696.204 189.481 696.289 189.704 696.289 189.968C696.289 190.22 696.204 190.437 696.034 190.618C695.87 190.794 695.633 190.882 695.322 190.882C695.006 190.882 694.766 190.794 694.602 190.618C694.443 190.437 694.364 190.22 694.364 189.968ZM700.358 194.521V202H698.732V192.49H700.271L700.358 194.521ZM699.972 196.885L699.295 196.858C699.301 196.208 699.397 195.607 699.585 195.057C699.772 194.5 700.036 194.017 700.376 193.606C700.716 193.196 701.12 192.88 701.589 192.657C702.063 192.429 702.588 192.314 703.162 192.314C703.631 192.314 704.053 192.379 704.428 192.508C704.803 192.631 705.122 192.83 705.386 193.105C705.655 193.381 705.86 193.738 706.001 194.178C706.142 194.611 706.212 195.142 706.212 195.769V202H704.577V195.751C704.577 195.253 704.504 194.854 704.357 194.556C704.211 194.251 703.997 194.031 703.716 193.896C703.435 193.756 703.089 193.686 702.679 193.686C702.274 193.686 701.905 193.771 701.571 193.94C701.243 194.11 700.959 194.345 700.719 194.644C700.484 194.942 700.3 195.285 700.165 195.672C700.036 196.053 699.972 196.457 699.972 196.885ZM714.843 192.49H716.319V201.798C716.319 202.636 716.149 203.351 715.81 203.942C715.47 204.534 714.995 204.982 714.386 205.287C713.782 205.598 713.085 205.753 712.294 205.753C711.966 205.753 711.579 205.7 711.134 205.595C710.694 205.495 710.261 205.322 709.833 205.076C709.411 204.836 709.057 204.511 708.77 204.101L709.622 203.134C710.021 203.614 710.437 203.948 710.87 204.136C711.31 204.323 711.743 204.417 712.171 204.417C712.687 204.417 713.132 204.32 713.507 204.127C713.882 203.934 714.172 203.646 714.377 203.266C714.588 202.891 714.693 202.428 714.693 201.877V194.582L714.843 192.49ZM708.295 197.351V197.166C708.295 196.439 708.38 195.78 708.55 195.188C708.726 194.591 708.975 194.078 709.297 193.65C709.625 193.223 710.021 192.895 710.483 192.666C710.946 192.432 711.468 192.314 712.048 192.314C712.646 192.314 713.167 192.42 713.612 192.631C714.063 192.836 714.444 193.138 714.755 193.536C715.071 193.929 715.32 194.403 715.502 194.96C715.684 195.517 715.81 196.146 715.88 196.85V197.658C715.815 198.355 715.689 198.982 715.502 199.539C715.32 200.096 715.071 200.57 714.755 200.963C714.444 201.355 714.063 201.657 713.612 201.868C713.161 202.073 712.634 202.176 712.03 202.176C711.462 202.176 710.946 202.056 710.483 201.815C710.026 201.575 709.634 201.238 709.306 200.805C708.978 200.371 708.726 199.861 708.55 199.275C708.38 198.684 708.295 198.042 708.295 197.351ZM709.921 197.166V197.351C709.921 197.825 709.968 198.271 710.062 198.687C710.161 199.103 710.311 199.469 710.51 199.785C710.715 200.102 710.976 200.351 711.292 200.532C711.608 200.708 711.986 200.796 712.426 200.796C712.965 200.796 713.41 200.682 713.762 200.453C714.113 200.225 714.392 199.923 714.597 199.548C714.808 199.173 714.972 198.766 715.089 198.326V196.208C715.024 195.886 714.925 195.575 714.79 195.276C714.661 194.972 714.491 194.702 714.28 194.468C714.075 194.228 713.82 194.037 713.516 193.896C713.211 193.756 712.854 193.686 712.443 193.686C711.998 193.686 711.614 193.779 711.292 193.967C710.976 194.148 710.715 194.4 710.51 194.723C710.311 195.039 710.161 195.408 710.062 195.83C709.968 196.246 709.921 196.691 709.921 197.166ZM728.861 200.374V195.479C728.861 195.104 728.785 194.778 728.633 194.503C728.486 194.222 728.264 194.005 727.965 193.853C727.666 193.7 727.297 193.624 726.857 193.624C726.447 193.624 726.087 193.694 725.776 193.835C725.472 193.976 725.231 194.16 725.056 194.389C724.886 194.617 724.801 194.863 724.801 195.127H723.175C723.175 194.787 723.263 194.45 723.438 194.116C723.614 193.782 723.866 193.48 724.194 193.211C724.528 192.936 724.927 192.719 725.39 192.561C725.858 192.396 726.38 192.314 726.954 192.314C727.646 192.314 728.255 192.432 728.782 192.666C729.315 192.9 729.731 193.255 730.03 193.729C730.335 194.198 730.487 194.787 730.487 195.496V199.926C730.487 200.242 730.514 200.579 730.566 200.937C730.625 201.294 730.71 201.602 730.821 201.859V202H729.125C729.043 201.812 728.979 201.563 728.932 201.253C728.885 200.937 728.861 200.644 728.861 200.374ZM729.143 196.234L729.16 197.377H727.517C727.054 197.377 726.641 197.415 726.277 197.491C725.914 197.562 725.609 197.67 725.363 197.816C725.117 197.963 724.93 198.147 724.801 198.37C724.672 198.587 724.607 198.842 724.607 199.135C724.607 199.434 724.675 199.706 724.81 199.952C724.944 200.198 725.146 200.395 725.416 200.541C725.691 200.682 726.028 200.752 726.427 200.752C726.925 200.752 727.364 200.646 727.745 200.436C728.126 200.225 728.428 199.967 728.65 199.662C728.879 199.357 729.002 199.062 729.02 198.774L729.714 199.557C729.673 199.803 729.562 200.075 729.38 200.374C729.198 200.673 728.955 200.96 728.65 201.235C728.352 201.505 727.994 201.73 727.578 201.912C727.168 202.088 726.705 202.176 726.189 202.176C725.545 202.176 724.979 202.05 724.493 201.798C724.013 201.546 723.638 201.209 723.368 200.787C723.104 200.359 722.973 199.882 722.973 199.354C722.973 198.845 723.072 198.396 723.271 198.01C723.471 197.617 723.758 197.292 724.133 197.034C724.508 196.771 724.959 196.571 725.486 196.437C726.014 196.302 726.603 196.234 727.253 196.234H729.143ZM734.671 194.318V205.656H733.036V192.49H734.53L734.671 194.318ZM741.078 197.166V197.351C741.078 198.042 740.996 198.684 740.832 199.275C740.668 199.861 740.428 200.371 740.111 200.805C739.801 201.238 739.417 201.575 738.96 201.815C738.503 202.056 737.979 202.176 737.387 202.176C736.783 202.176 736.25 202.076 735.787 201.877C735.324 201.678 734.932 201.388 734.609 201.007C734.287 200.626 734.029 200.169 733.836 199.636C733.648 199.103 733.52 198.502 733.449 197.834V196.85C733.52 196.146 733.651 195.517 733.845 194.96C734.038 194.403 734.293 193.929 734.609 193.536C734.932 193.138 735.321 192.836 735.778 192.631C736.235 192.42 736.763 192.314 737.36 192.314C737.958 192.314 738.488 192.432 738.951 192.666C739.414 192.895 739.804 193.223 740.12 193.65C740.437 194.078 740.674 194.591 740.832 195.188C740.996 195.78 741.078 196.439 741.078 197.166ZM739.443 197.351V197.166C739.443 196.691 739.394 196.246 739.294 195.83C739.194 195.408 739.039 195.039 738.828 194.723C738.623 194.4 738.359 194.148 738.037 193.967C737.715 193.779 737.331 193.686 736.886 193.686C736.476 193.686 736.118 193.756 735.813 193.896C735.515 194.037 735.26 194.228 735.049 194.468C734.838 194.702 734.665 194.972 734.53 195.276C734.401 195.575 734.305 195.886 734.24 196.208V198.484C734.357 198.895 734.521 199.281 734.732 199.645C734.943 200.002 735.225 200.292 735.576 200.515C735.928 200.731 736.37 200.84 736.903 200.84C737.343 200.84 737.721 200.749 738.037 200.567C738.359 200.38 738.623 200.125 738.828 199.803C739.039 199.48 739.194 199.111 739.294 198.695C739.394 198.273 739.443 197.825 739.443 197.351ZM744.778 194.318V205.656H743.144V192.49H744.638L744.778 194.318ZM751.186 197.166V197.351C751.186 198.042 751.104 198.684 750.939 199.275C750.775 199.861 750.535 200.371 750.219 200.805C749.908 201.238 749.524 201.575 749.067 201.815C748.61 202.056 748.086 202.176 747.494 202.176C746.891 202.176 746.357 202.076 745.895 201.877C745.432 201.678 745.039 201.388 744.717 201.007C744.395 200.626 744.137 200.169 743.943 199.636C743.756 199.103 743.627 198.502 743.557 197.834V196.85C743.627 196.146 743.759 195.517 743.952 194.96C744.146 194.403 744.4 193.929 744.717 193.536C745.039 193.138 745.429 192.836 745.886 192.631C746.343 192.42 746.87 192.314 747.468 192.314C748.065 192.314 748.596 192.432 749.059 192.666C749.521 192.895 749.911 193.223 750.228 193.65C750.544 194.078 750.781 194.591 750.939 195.188C751.104 195.78 751.186 196.439 751.186 197.166ZM749.551 197.351V197.166C749.551 196.691 749.501 196.246 749.401 195.83C749.302 195.408 749.146 195.039 748.936 194.723C748.73 194.4 748.467 194.148 748.145 193.967C747.822 193.779 747.438 193.686 746.993 193.686C746.583 193.686 746.226 193.756 745.921 193.896C745.622 194.037 745.367 194.228 745.156 194.468C744.945 194.702 744.772 194.972 744.638 195.276C744.509 195.575 744.412 195.886 744.348 196.208V198.484C744.465 198.895 744.629 199.281 744.84 199.645C745.051 200.002 745.332 200.292 745.684 200.515C746.035 200.731 746.478 200.84 747.011 200.84C747.45 200.84 747.828 200.749 748.145 200.567C748.467 200.38 748.73 200.125 748.936 199.803C749.146 199.48 749.302 199.111 749.401 198.695C749.501 198.273 749.551 197.825 749.551 197.351Z" fill="white"/>
<g filter="url(#filter0_d_407_2)">
<circle cx="451" cy="52" r="14" fill="#EBB733"/>
</g>
<g filter="url(#filter1_d_407_2)">
<circle cx="519" cy="52" r="14" fill="#EBB733"/>
</g>
<rect x="445" y="62" width="80" height="60" rx="22" fill="#FCD061"/>
<g filter="url(#filter2_d_407_2)">
<rect x="445" y="56" width="80" height="60" rx="22" fill="#EBB733"/>
</g>
<g filter="url(#filter3_d_407_2)">
<circle cx="450" cy="51" r="9" fill="white"/>
</g>
<g filter="url(#filter4_d_407_2)">
<circle cx="450" cy="51" r="5" fill="black"/>
</g>
<g filter="url(#filter5_d_407_2)">
<circle cx="520" cy="51" r="9" fill="white"/>
</g>
<g filter="url(#filter6_d_407_2)">
<circle cx="520" cy="51" r="5" fill="black"/>
</g>
<path d="M476 89V107L484 93M476 89L465 81L505 66L495 101L484 93M476 89L492 78L484 93" stroke="black"/>
<defs>
<filter id="filter0_d_407_2" x="433" y="38" width="36" height="36" filterUnits="userSpaceOnUse" color-interpolation-filters="sRGB">
<feFlood flood-opacity="0" result="BackgroundImageFix"/>
<feColorMatrix in="SourceAlpha" type="matrix" values="0 0 0 0 0 0 0 0 0 0 0 0 0 0 0 0 0 0 127 0" result="hardAlpha"/>
<feOffset dy="4"/>
<feGaussianBlur stdDeviation="2"/>
<feColorMatrix type="matrix" values="0 0 0 0 0 0 0 0 0 0 0 0 0 0 0 0 0 0 0.25 0"/>
<feBlend mode="normal" in2="BackgroundImageFix" result="effect1_dropShadow_407_2"/>
<feBlend mode="normal" in="SourceGraphic" in2="effect1_dropShadow_407_2" result="shape"/>
</filter>
<filter id="filter1_d_407_2" x="501" y="38" width="36" height="36" filterUnits="userSpaceOnUse" color-interpolation-filters="sRGB">
<feFlood flood-opacity="0" result="BackgroundImageFix"/>
<feColorMatrix in="SourceAlpha" type="matrix" values="0 0 0 0 0 0 0 0 0 0 0 0 0 0 0 0 0 0 127 0" result="hardAlpha"/>
<feOffset dy="4"/>
<feGaussianBlur stdDeviation="2"/>
<feColorMatrix type="matrix" values="0 0 0 0 0 0 0 0 0 0 0 0 0 0 0 0 0 0 0.25 0"/>
<feBlend mode="normal" in2="BackgroundImageFix" result="effect1_dropShadow_407_2"/>
<feBlend mode="normal" in="SourceGraphic" in2="effect1_dropShadow_407_2" result="shape"/>
</filter>
<filter id="filter2_d_407_2" x="441" y="56" width="88" height="68" filterUnits="userSpaceOnUse" color-interpolation-filters="sRGB">
<feFlood flood-opacity="0" result="BackgroundImageFix"/>
<feColorMatrix in="SourceAlpha" type="matrix" values="0 0 0 0 0 0 0 0 0 0 0 0 0 0 0 0 0 0 127 0" result="hardAlpha"/>
<feOffset dy="4"/>
<feGaussianBlur stdDeviation="2"/>
<feColorMatrix type="matrix" values="0 0 0 0 0 0 0 0 0 0 0 0 0 0 0 0 0 0 0.25 0"/>
<feBlend mode="normal" in2="BackgroundImageFix" result="effect1_dropShadow_407_2"/>
<feBlend mode="normal" in="SourceGraphic" in2="effect1_dropShadow_407_2" result="shape"/>
</filter>
<filter id="filter3_d_407_2" x="437" y="42" width="26" height="26" filterUnits="userSpaceOnUse" color-interpolation-filters="sRGB">
<feFlood flood-opacity="0" result="BackgroundImageFix"/>
<feColorMatrix in="SourceAlpha" type="matrix" values="0 0 0 0 0 0 0 0 0 0 0 0 0 0 0 0 0 0 127 0" result="hardAlpha"/>
<feOffset dy="4"/>
<feGaussianBlur stdDeviation="2"/>
<feColorMatrix type="matrix" values="0 0 0 0 0 0 0 0 0 0 0 0 0 0 0 0 0 0 0.25 0"/>
<feBlend mode="normal" in2="BackgroundImageFix" result="effect1_dropShadow_407_2"/>
<feBlend mode="normal" in="SourceGraphic" in2="effect1_dropShadow_407_2" result="shape"/>
</filter>
<filter id="filter4_d_407_2" x="441" y="46" width="18" height="18" filterUnits="userSpaceOnUse" color-interpolation-filters="sRGB">
<feFlood flood-opacity="0" result="BackgroundImageFix"/>
<feColorMatrix in="SourceAlpha" type="matrix" values="0 0 0 0 0 0 0 0 0 0 0 0 0 0 0 0 0 0 127 0" result="hardAlpha"/>
<feOffset dy="4"/>
<feGaussianBlur stdDeviation="2"/>
<feColorMatrix type="matrix" values="0 0 0 0 0 0 0 0 0 0 0 0 0 0 0 0 0 0 0.25 0"/>
<feBlend mode="normal" in2="BackgroundImageFix" result="effect1_dropShadow_407_2"/>
<feBlend mode="normal" in="SourceGraphic" in2="effect1_dropShadow_407_2" result="shape"/>
</filter>
<filter id="filter5_d_407_2" x="507" y="42" width="26" height="26" filterUnits="userSpaceOnUse" color-interpolation-filters="sRGB">
<feFlood flood-opacity="0" result="BackgroundImageFix"/>
<feColorMatrix in="SourceAlpha" type="matrix" values="0 0 0 0 0 0 0 0 0 0 0 0 0 0 0 0 0 0 127 0" result="hardAlpha"/>
<feOffset dy="4"/>
<feGaussianBlur stdDeviation="2"/>
<feColorMatrix type="matrix" values="0 0 0 0 0 0 0 0 0 0 0 0 0 0 0 0 0 0 0.25 0"/>
<feBlend mode="normal" in2="BackgroundImageFix" result="effect1_dropShadow_407_2"/>
<feBlend mode="normal" in="SourceGraphic" in2="effect1_dropShadow_407_2" result="shape"/>
</filter>
<filter id="filter6_d_407_2" x="511" y="46" width="18" height="18" filterUnits="userSpaceOnUse" color-interpolation-filters="sRGB">
<feFlood flood-opacity="0" result="BackgroundImageFix"/>
<feColorMatrix in="SourceAlpha" type="matrix" values="0 0 0 0 0 0 0 0 0 0 0 0 0 0 0 0 0 0 127 0" result="hardAlpha"/>
<feOffset dy="4"/>
<feGaussianBlur stdDeviation="2"/>
<feColorMatrix type="matrix" values="0 0 0 0 0 0 0 0 0 0 0 0 0 0 0 0 0 0 0.25 0"/>
<feBlend mode="normal" in2="BackgroundImageFix" result="effect1_dropShadow_407_2"/>
<feBlend mode="normal" in="SourceGraphic" in2="effect1_dropShadow_407_2" result="shape"/>
</filter>
</defs>
</svg>
