<svg width="970" height="250" viewBox="0 0 970 250" fill="none" xmlns="http://www.w3.org/2000/svg">
<rect width="970" height="250" fill="#2F2F2F"/>
<path d="M420.646 172V146.406H429.014C431.791 146.406 433.877 146.98 435.271 148.129C436.678 149.277 437.381 150.977 437.381 153.227C437.381 154.422 437.041 155.482 436.361 156.408C435.682 157.322 434.756 158.031 433.584 158.535C434.967 158.922 436.057 159.66 436.854 160.75C437.662 161.828 438.066 163.117 438.066 164.617C438.066 166.914 437.322 168.719 435.834 170.031C434.346 171.344 432.242 172 429.523 172H420.646ZM424.021 160.029V169.24H429.594C431.164 169.24 432.4 168.836 433.303 168.027C434.217 167.207 434.674 166.082 434.674 164.652C434.674 161.57 432.998 160.029 429.646 160.029H424.021ZM424.021 157.322H429.119C430.596 157.322 431.773 156.953 432.652 156.215C433.543 155.477 433.988 154.475 433.988 153.209C433.988 151.803 433.578 150.783 432.758 150.15C431.938 149.506 430.689 149.184 429.014 149.184H424.021V157.322ZM454.309 170.119C453.043 171.607 451.186 172.352 448.736 172.352C446.709 172.352 445.162 171.766 444.096 170.594C443.041 169.41 442.508 167.664 442.496 165.355V152.98H445.748V165.268C445.748 168.15 446.92 169.592 449.264 169.592C451.748 169.592 453.4 168.666 454.221 166.814V152.98H457.473V172H454.379L454.309 170.119ZM466.842 148.375V152.98H470.393V155.494H466.842V167.289C466.842 168.051 467 168.625 467.316 169.012C467.633 169.387 468.172 169.574 468.934 169.574C469.309 169.574 469.824 169.504 470.48 169.363V172C469.625 172.234 468.793 172.352 467.984 172.352C466.531 172.352 465.436 171.912 464.697 171.033C463.959 170.154 463.59 168.906 463.59 167.289V155.494H460.127V152.98H463.59V148.375H466.842ZM478.619 148.375V152.98H482.17V155.494H478.619V167.289C478.619 168.051 478.777 168.625 479.094 169.012C479.41 169.387 479.949 169.574 480.711 169.574C481.086 169.574 481.602 169.504 482.258 169.363V172C481.402 172.234 480.57 172.352 479.762 172.352C478.309 172.352 477.213 171.912 476.475 171.033C475.736 170.154 475.367 168.906 475.367 167.289V155.494H471.904V152.98H475.367V148.375H478.619ZM493.877 172.352C491.299 172.352 489.201 171.508 487.584 169.82C485.967 168.121 485.158 165.854 485.158 163.018V162.42C485.158 160.533 485.516 158.852 486.23 157.375C486.957 155.887 487.965 154.727 489.254 153.895C490.555 153.051 491.961 152.629 493.473 152.629C495.945 152.629 497.867 153.443 499.238 155.072C500.609 156.701 501.295 159.033 501.295 162.068V163.422H488.41C488.457 165.297 489.002 166.814 490.045 167.975C491.1 169.123 492.436 169.697 494.053 169.697C495.201 169.697 496.174 169.463 496.971 168.994C497.768 168.525 498.465 167.904 499.062 167.131L501.049 168.678C499.455 171.127 497.064 172.352 493.877 172.352ZM493.473 155.301C492.16 155.301 491.059 155.781 490.168 156.742C489.277 157.691 488.727 159.027 488.516 160.75H498.043V160.504C497.949 158.852 497.504 157.574 496.707 156.672C495.91 155.758 494.832 155.301 493.473 155.301ZM514.268 155.898C513.775 155.816 513.242 155.775 512.668 155.775C510.535 155.775 509.088 156.684 508.326 158.5V172H505.074V152.98H508.238L508.291 155.178C509.357 153.479 510.869 152.629 512.826 152.629C513.459 152.629 513.939 152.711 514.268 152.875V155.898ZM529.156 147.76C527.703 147.525 526.531 147.408 525.641 147.408C523.297 147.408 522.125 148.639 522.125 151.1V152.98H526.186V155.494H522.125V172H518.873V155.494H515.867V152.98H518.873V150.906C518.885 148.879 519.453 147.326 520.578 146.248C521.703 145.17 523.303 144.631 525.377 144.631C526.561 144.631 528.904 144.988 532.408 145.703V172H529.156V147.76ZM543.957 167.236L548.387 152.98H551.867L544.221 174.936C543.037 178.1 541.156 179.682 538.578 179.682L537.963 179.629L536.75 179.4V176.764L537.629 176.834C538.73 176.834 539.586 176.611 540.195 176.166C540.816 175.721 541.326 174.906 541.725 173.723L542.445 171.789L535.66 152.98H539.211L543.957 167.236Z" fill="white"/>
<path d="M426.034 197.939C425.876 199.293 425.375 200.339 424.531 201.077C423.693 201.81 422.577 202.176 421.183 202.176C419.671 202.176 418.458 201.634 417.544 200.55C416.636 199.466 416.182 198.016 416.182 196.199V194.969C416.182 193.779 416.393 192.733 416.814 191.831C417.242 190.929 417.846 190.237 418.625 189.757C419.404 189.271 420.307 189.027 421.332 189.027C422.691 189.027 423.781 189.408 424.602 190.17C425.422 190.926 425.899 191.975 426.034 193.316H424.338C424.191 192.297 423.872 191.559 423.38 191.102C422.894 190.645 422.211 190.416 421.332 190.416C420.254 190.416 419.407 190.814 418.792 191.611C418.183 192.408 417.878 193.542 417.878 195.013V196.252C417.878 197.641 418.168 198.745 418.748 199.565C419.328 200.386 420.14 200.796 421.183 200.796C422.12 200.796 422.838 200.585 423.336 200.163C423.84 199.735 424.174 198.994 424.338 197.939H426.034ZM429.717 193.642C430.438 192.757 431.375 192.314 432.529 192.314C434.539 192.314 435.553 193.448 435.57 195.716V202H433.944V195.707C433.938 195.021 433.78 194.515 433.47 194.187C433.165 193.858 432.688 193.694 432.037 193.694C431.51 193.694 431.047 193.835 430.648 194.116C430.25 194.397 429.939 194.767 429.717 195.224V202H428.091V188.5H429.717V193.642ZM443.876 202C443.782 201.812 443.706 201.479 443.647 200.998C442.892 201.783 441.989 202.176 440.94 202.176C440.003 202.176 439.232 201.912 438.629 201.385C438.031 200.852 437.732 200.178 437.732 199.363C437.732 198.373 438.107 197.605 438.857 197.061C439.613 196.51 440.674 196.234 442.039 196.234H443.621V195.487C443.621 194.919 443.451 194.468 443.111 194.134C442.771 193.794 442.271 193.624 441.608 193.624C441.028 193.624 440.542 193.771 440.149 194.063C439.757 194.356 439.561 194.711 439.561 195.127H437.926C437.926 194.652 438.093 194.195 438.427 193.756C438.767 193.311 439.224 192.959 439.798 192.701C440.378 192.443 441.014 192.314 441.705 192.314C442.801 192.314 443.659 192.59 444.28 193.141C444.901 193.686 445.224 194.438 445.247 195.399V199.776C445.247 200.649 445.358 201.344 445.581 201.859V202H443.876ZM441.178 200.761C441.688 200.761 442.171 200.629 442.628 200.365C443.085 200.102 443.416 199.759 443.621 199.337V197.386H442.347C440.354 197.386 439.358 197.969 439.358 199.135C439.358 199.645 439.528 200.043 439.868 200.33C440.208 200.617 440.645 200.761 441.178 200.761ZM449.334 192.49L449.387 193.686C450.113 192.771 451.062 192.314 452.234 192.314C454.244 192.314 455.258 193.448 455.275 195.716V202H453.649V195.707C453.644 195.021 453.485 194.515 453.175 194.187C452.87 193.858 452.393 193.694 451.742 193.694C451.215 193.694 450.752 193.835 450.354 194.116C449.955 194.397 449.645 194.767 449.422 195.224V202H447.796V192.49H449.334ZM457.341 197.166C457.341 195.684 457.684 194.506 458.369 193.633C459.055 192.754 459.963 192.314 461.094 192.314C462.254 192.314 463.159 192.725 463.81 193.545L463.889 192.49H465.374V201.771C465.374 203.002 465.008 203.972 464.275 204.681C463.549 205.39 462.57 205.744 461.34 205.744C460.654 205.744 459.983 205.598 459.327 205.305C458.671 205.012 458.17 204.61 457.824 204.101L458.668 203.125C459.365 203.986 460.218 204.417 461.226 204.417C462.017 204.417 462.632 204.194 463.071 203.749C463.517 203.304 463.739 202.677 463.739 201.868V201.051C463.089 201.801 462.201 202.176 461.076 202.176C459.963 202.176 459.061 201.728 458.369 200.831C457.684 199.935 457.341 198.713 457.341 197.166ZM458.976 197.351C458.976 198.423 459.195 199.267 459.635 199.882C460.074 200.491 460.689 200.796 461.48 200.796C462.506 200.796 463.259 200.33 463.739 199.398V195.057C463.241 194.148 462.494 193.694 461.498 193.694C460.707 193.694 460.089 194.002 459.644 194.617C459.198 195.232 458.976 196.144 458.976 197.351ZM471.781 202.176C470.492 202.176 469.443 201.754 468.635 200.91C467.826 200.061 467.422 198.927 467.422 197.509V197.21C467.422 196.267 467.601 195.426 467.958 194.688C468.321 193.943 468.825 193.363 469.47 192.947C470.12 192.525 470.823 192.314 471.579 192.314C472.815 192.314 473.776 192.722 474.462 193.536C475.147 194.351 475.49 195.517 475.49 197.034V197.711H469.048C469.071 198.648 469.344 199.407 469.865 199.987C470.393 200.562 471.061 200.849 471.869 200.849C472.443 200.849 472.93 200.731 473.328 200.497C473.727 200.263 474.075 199.952 474.374 199.565L475.367 200.339C474.57 201.563 473.375 202.176 471.781 202.176ZM471.579 193.65C470.923 193.65 470.372 193.891 469.927 194.371C469.481 194.846 469.206 195.514 469.101 196.375H473.864V196.252C473.817 195.426 473.595 194.787 473.196 194.336C472.798 193.879 472.259 193.65 471.579 193.65ZM484.051 190.188V192.49H485.826V193.747H484.051V199.645C484.051 200.025 484.13 200.312 484.288 200.506C484.446 200.693 484.716 200.787 485.097 200.787C485.284 200.787 485.542 200.752 485.87 200.682V202C485.442 202.117 485.026 202.176 484.622 202.176C483.896 202.176 483.348 201.956 482.979 201.517C482.609 201.077 482.425 200.453 482.425 199.645V193.747H480.693V192.49H482.425V190.188H484.051ZM489.359 193.642C490.08 192.757 491.018 192.314 492.172 192.314C494.182 192.314 495.195 193.448 495.213 195.716V202H493.587V195.707C493.581 195.021 493.423 194.515 493.112 194.187C492.808 193.858 492.33 193.694 491.68 193.694C491.152 193.694 490.689 193.835 490.291 194.116C489.893 194.397 489.582 194.767 489.359 195.224V202H487.733V188.5H489.359V193.642ZM501.594 202.176C500.305 202.176 499.256 201.754 498.447 200.91C497.639 200.061 497.234 198.927 497.234 197.509V197.21C497.234 196.267 497.413 195.426 497.771 194.688C498.134 193.943 498.638 193.363 499.282 192.947C499.933 192.525 500.636 192.314 501.392 192.314C502.628 192.314 503.589 192.722 504.274 193.536C504.96 194.351 505.303 195.517 505.303 197.034V197.711H498.86C498.884 198.648 499.156 199.407 499.678 199.987C500.205 200.562 500.873 200.849 501.682 200.849C502.256 200.849 502.742 200.731 503.141 200.497C503.539 200.263 503.888 199.952 504.187 199.565L505.18 200.339C504.383 201.563 503.188 202.176 501.594 202.176ZM501.392 193.65C500.735 193.65 500.185 193.891 499.739 194.371C499.294 194.846 499.019 195.514 498.913 196.375H503.677V196.252C503.63 195.426 503.407 194.787 503.009 194.336C502.61 193.879 502.071 193.65 501.392 193.65ZM520.077 199.759L521.905 192.49H523.531L520.763 202H519.444L517.133 194.793L514.883 202H513.564L510.805 192.49H512.422L514.294 199.609L516.509 192.49H517.818L520.077 199.759ZM524.762 197.157C524.762 196.226 524.943 195.388 525.307 194.644C525.676 193.899 526.186 193.325 526.836 192.921C527.492 192.517 528.239 192.314 529.077 192.314C530.372 192.314 531.418 192.763 532.215 193.659C533.018 194.556 533.419 195.748 533.419 197.236V197.351C533.419 198.276 533.24 199.108 532.883 199.847C532.531 200.579 532.024 201.15 531.362 201.561C530.706 201.971 529.95 202.176 529.095 202.176C527.806 202.176 526.76 201.728 525.957 200.831C525.16 199.935 524.762 198.748 524.762 197.271V197.157ZM526.396 197.351C526.396 198.405 526.64 199.252 527.126 199.891C527.618 200.529 528.274 200.849 529.095 200.849C529.921 200.849 530.577 200.526 531.063 199.882C531.55 199.231 531.793 198.323 531.793 197.157C531.793 196.114 531.544 195.271 531.046 194.626C530.554 193.976 529.897 193.65 529.077 193.65C528.274 193.65 527.627 193.97 527.135 194.608C526.643 195.247 526.396 196.161 526.396 197.351ZM540.055 193.949C539.809 193.908 539.542 193.888 539.255 193.888C538.188 193.888 537.465 194.342 537.084 195.25V202H535.458V192.49H537.04L537.066 193.589C537.6 192.739 538.355 192.314 539.334 192.314C539.65 192.314 539.891 192.355 540.055 192.438V193.949ZM543.324 202H541.698V188.5H543.324V202ZM545.539 197.166C545.539 195.707 545.885 194.535 546.576 193.65C547.268 192.76 548.173 192.314 549.292 192.314C550.405 192.314 551.287 192.695 551.938 193.457V188.5H553.563V202H552.069L551.99 200.98C551.34 201.777 550.435 202.176 549.274 202.176C548.173 202.176 547.273 201.725 546.576 200.822C545.885 199.92 545.539 198.742 545.539 197.289V197.166ZM547.165 197.351C547.165 198.429 547.388 199.272 547.833 199.882C548.278 200.491 548.894 200.796 549.679 200.796C550.71 200.796 551.463 200.333 551.938 199.407V195.039C551.451 194.143 550.704 193.694 549.696 193.694C548.899 193.694 548.278 194.002 547.833 194.617C547.388 195.232 547.165 196.144 547.165 197.351Z" fill="white"/>
<g filter="url(#filter0_d)">
<circle cx="451" cy="40" r="14" fill="#EBB733"/>
</g>
<g filter="url(#filter1_d)">
<circle cx="519" cy="40" r="14" fill="#EBB733"/>
</g>
<rect x="445" y="50" width="80" height="60" rx="11" fill="#FCD061"/>
<g filter="url(#filter2_d)">
<rect x="445" y="44" width="80" height="60" rx="11" fill="#EBB733"/>
</g>
<g filter="url(#filter3_d)">
<circle cx="450" cy="39" r="9" fill="white"/>
</g>
<g filter="url(#filter4_d)">
<circle cx="450" cy="39" r="5" fill="black"/>
</g>
<g filter="url(#filter5_d)">
<circle cx="520" cy="39" r="9" fill="white"/>
</g>
<g filter="url(#filter6_d)">
<circle cx="520" cy="39" r="5" fill="black"/>
</g>
<path d="M476 77V95L484 81M476 77L465 69L505 54L495 89L484 81M476 77L492 66L484 81" stroke="black"/>
<defs>
<filter id="filter0_d" x="433" y="26" width="36" height="36" filterUnits="userSpaceOnUse" color-interpolation-filters="sRGB">
<feFlood flood-opacity="0" result="BackgroundImageFix"/>
<feColorMatrix in="SourceAlpha" type="matrix" values="0 0 0 0 0 0 0 0 0 0 0 0 0 0 0 0 0 0 127 0" result="hardAlpha"/>
<feOffset dy="4"/>
<feGaussianBlur stdDeviation="2"/>
<feColorMatrix type="matrix" values="0 0 0 0 0 0 0 0 0 0 0 0 0 0 0 0 0 0 0.25 0"/>
<feBlend mode="normal" in2="BackgroundImageFix" result="effect1_dropShadow"/>
<feBlend mode="normal" in="SourceGraphic" in2="effect1_dropShadow" result="shape"/>
</filter>
<filter id="filter1_d" x="501" y="26" width="36" height="36" filterUnits="userSpaceOnUse" color-interpolation-filters="sRGB">
<feFlood flood-opacity="0" result="BackgroundImageFix"/>
<feColorMatrix in="SourceAlpha" type="matrix" values="0 0 0 0 0 0 0 0 0 0 0 0 0 0 0 0 0 0 127 0" result="hardAlpha"/>
<feOffset dy="4"/>
<feGaussianBlur stdDeviation="2"/>
<feColorMatrix type="matrix" values="0 0 0 0 0 0 0 0 0 0 0 0 0 0 0 0 0 0 0.25 0"/>
<feBlend mode="normal" in2="BackgroundImageFix" result="effect1_dropShadow"/>
<feBlend mode="normal" in="SourceGraphic" in2="effect1_dropShadow" result="shape"/>
</filter>
<filter id="filter2_d" x="441" y="44" width="88" height="68" filterUnits="userSpaceOnUse" color-interpolation-filters="sRGB">
<feFlood flood-opacity="0" result="BackgroundImageFix"/>
<feColorMatrix in="SourceAlpha" type="matrix" values="0 0 0 0 0 0 0 0 0 0 0 0 0 0 0 0 0 0 127 0" result="hardAlpha"/>
<feOffset dy="4"/>
<feGaussianBlur stdDeviation="2"/>
<feColorMatrix type="matrix" values="0 0 0 0 0 0 0 0 0 0 0 0 0 0 0 0 0 0 0.25 0"/>
<feBlend mode="normal" in2="BackgroundImageFix" result="effect1_dropShadow"/>
<feBlend mode="normal" in="SourceGraphic" in2="effect1_dropShadow" result="shape"/>
</filter>
<filter id="filter3_d" x="437" y="30" width="26" height="26" filterUnits="userSpaceOnUse" color-interpolation-filters="sRGB">
<feFlood flood-opacity="0" result="BackgroundImageFix"/>
<feColorMatrix in="SourceAlpha" type="matrix" values="0 0 0 0 0 0 0 0 0 0 0 0 0 0 0 0 0 0 127 0" result="hardAlpha"/>
<feOffset dy="4"/>
<feGaussianBlur stdDeviation="2"/>
<feColorMatrix type="matrix" values="0 0 0 0 0 0 0 0 0 0 0 0 0 0 0 0 0 0 0.25 0"/>
<feBlend mode="normal" in2="BackgroundImageFix" result="effect1_dropShadow"/>
<feBlend mode="normal" in="SourceGraphic" in2="effect1_dropShadow" result="shape"/>
</filter>
<filter id="filter4_d" x="441" y="34" width="18" height="18" filterUnits="userSpaceOnUse" color-interpolation-filters="sRGB">
<feFlood flood-opacity="0" result="BackgroundImageFix"/>
<feColorMatrix in="SourceAlpha" type="matrix" values="0 0 0 0 0 0 0 0 0 0 0 0 0 0 0 0 0 0 127 0" result="hardAlpha"/>
<feOffset dy="4"/>
<feGaussianBlur stdDeviation="2"/>
<feColorMatrix type="matrix" values="0 0 0 0 0 0 0 0 0 0 0 0 0 0 0 0 0 0 0.25 0"/>
<feBlend mode="normal" in2="BackgroundImageFix" result="effect1_dropShadow"/>
<feBlend mode="normal" in="SourceGraphic" in2="effect1_dropShadow" result="shape"/>
</filter>
<filter id="filter5_d" x="507" y="30" width="26" height="26" filterUnits="userSpaceOnUse" color-interpolation-filters="sRGB">
<feFlood flood-opacity="0" result="BackgroundImageFix"/>
<feColorMatrix in="SourceAlpha" type="matrix" values="0 0 0 0 0 0 0 0 0 0 0 0 0 0 0 0 0 0 127 0" result="hardAlpha"/>
<feOffset dy="4"/>
<feGaussianBlur stdDeviation="2"/>
<feColorMatrix type="matrix" values="0 0 0 0 0 0 0 0 0 0 0 0 0 0 0 0 0 0 0.25 0"/>
<feBlend mode="normal" in2="BackgroundImageFix" result="effect1_dropShadow"/>
<feBlend mode="normal" in="SourceGraphic" in2="effect1_dropShadow" result="shape"/>
</filter>
<filter id="filter6_d" x="511" y="34" width="18" height="18" filterUnits="userSpaceOnUse" color-interpolation-filters="sRGB">
<feFlood flood-opacity="0" result="BackgroundImageFix"/>
<feColorMatrix in="SourceAlpha" type="matrix" values="0 0 0 0 0 0 0 0 0 0 0 0 0 0 0 0 0 0 127 0" result="hardAlpha"/>
<feOffset dy="4"/>
<feGaussianBlur stdDeviation="2"/>
<feColorMatrix type="matrix" values="0 0 0 0 0 0 0 0 0 0 0 0 0 0 0 0 0 0 0.25 0"/>
<feBlend mode="normal" in2="BackgroundImageFix" result="effect1_dropShadow"/>
<feBlend mode="normal" in="SourceGraphic" in2="effect1_dropShadow" result="shape"/>
</filter>
</defs>
</svg>
