<svg width="64" height="64" viewBox="0 0 64 64" fill="none" xmlns="http://www.w3.org/2000/svg">
<g clip-path="url(#clip0_1930_20)">
<g filter="url(#filter0_d_1930_20)">
<ellipse cx="42.5737" cy="24.5439" rx="13.5" ry="16" transform="rotate(29.0721 42.5737 24.5439)" fill="#3D9EC0"/>
</g>
<g filter="url(#filter1_d_1930_20)">
<ellipse cx="20.5734" cy="24.5438" rx="13.5" ry="16" transform="rotate(-29.07 20.5734 24.5438)" fill="#3D9EC0"/>
</g>
<g filter="url(#filter2_d_1930_20)">
<ellipse cx="20.6723" cy="46.8254" rx="7.5" ry="10.5" transform="rotate(29.23 20.6723 46.8254)" fill="#3D9EC0"/>
</g>
<g filter="url(#filter3_d_1930_20)">
<ellipse cx="42.6724" cy="46.8254" rx="7.5" ry="10.5" transform="rotate(-29.2308 42.6724 46.8254)" fill="#3D9EC0"/>
</g>
<rect x="25" y="24" width="13" height="30" rx="6.5" fill="#3D9EC0"/>
<g filter="url(#filter4_d_1930_20)">
<rect x="25" y="17" width="13" height="30" rx="6.5" fill="#75B2C7"/>
</g>
<path d="M27 28.5C27 28.5 28.7643 28.965 31 29C33.3341 29.0366 36 28.5 36 28.5" stroke="#3B798F" stroke-width="2" stroke-linecap="round" stroke-linejoin="round"/>
<circle cx="25.5" cy="21.5" r="4.5" fill="white"/>
<circle cx="25.5" cy="21.5" r="2.5" fill="#3B798F"/>
<circle cx="37.5" cy="21.5" r="4.5" fill="white"/>
<circle cx="37.5" cy="21.5" r="2.5" fill="#3B798F"/>
<circle cx="50" cy="21" r="2" fill="#75B2C7"/>
<circle cx="14" cy="21" r="2" fill="#75B2C7"/>
<path d="M14.0996 55.5066C9.68171 52.1373 9.48348 45.8351 10.5175 40.739C11.0139 38.292 13.8191 37.3696 15.9324 38.6993L19.5024 40.9456C20.3259 41.4638 21.3099 41.664 22.2704 41.5089L28.6631 40.4764C29.678 40.3125 30.717 40.5456 31.5646 41.1274L32.1829 41.5518C33.6682 42.5714 35.6331 42.4509 36.9535 41.2253C39.6091 38.7606 43.2158 35.4979 45.8321 35.1258C51.7152 34.2893 53.626 37.7892 53.626 40.7305C53.9972 44.2972 52.8525 51.8956 48.2151 55.5066C42.7151 59.7893 19.7151 59.7893 14.0996 55.5066Z" fill="#3DC059" stroke="#75C78E"/>
</g>
<defs>
<filter id="filter0_d_1930_20" x="24.4419" y="9.09399" width="36.2635" height="38.8998" filterUnits="userSpaceOnUse" color-interpolation-filters="sRGB">
<feFlood flood-opacity="0" result="BackgroundImageFix"/>
<feColorMatrix in="SourceAlpha" type="matrix" values="0 0 0 0 0 0 0 0 0 0 0 0 0 0 0 0 0 0 127 0" result="hardAlpha"/>
<feOffset dy="4"/>
<feGaussianBlur stdDeviation="2"/>
<feColorMatrix type="matrix" values="0 0 0 0 0 0 0 0 0 0 0 0 0 0 0 0 0 0 0.25 0"/>
<feBlend mode="normal" in2="BackgroundImageFix" result="effect1_dropShadow_1930_20"/>
<feBlend mode="normal" in="SourceGraphic" in2="effect1_dropShadow_1930_20" result="shape"/>
</filter>
<filter id="filter1_d_1930_20" x="2.44171" y="9.09381" width="36.2634" height="38.9" filterUnits="userSpaceOnUse" color-interpolation-filters="sRGB">
<feFlood flood-opacity="0" result="BackgroundImageFix"/>
<feColorMatrix in="SourceAlpha" type="matrix" values="0 0 0 0 0 0 0 0 0 0 0 0 0 0 0 0 0 0 127 0" result="hardAlpha"/>
<feOffset dy="4"/>
<feGaussianBlur stdDeviation="2"/>
<feColorMatrix type="matrix" values="0 0 0 0 0 0 0 0 0 0 0 0 0 0 0 0 0 0 0.25 0"/>
<feBlend mode="normal" in2="BackgroundImageFix" result="effect1_dropShadow_1930_20"/>
<feBlend mode="normal" in="SourceGraphic" in2="effect1_dropShadow_1930_20" result="shape"/>
</filter>
<filter id="filter2_d_1930_20" x="8.35773" y="36.955" width="24.6292" height="27.7408" filterUnits="userSpaceOnUse" color-interpolation-filters="sRGB">
<feFlood flood-opacity="0" result="BackgroundImageFix"/>
<feColorMatrix in="SourceAlpha" type="matrix" values="0 0 0 0 0 0 0 0 0 0 0 0 0 0 0 0 0 0 127 0" result="hardAlpha"/>
<feOffset dy="4"/>
<feGaussianBlur stdDeviation="2"/>
<feColorMatrix type="matrix" values="0 0 0 0 0 0 0 0 0 0 0 0 0 0 0 0 0 0 0.25 0"/>
<feBlend mode="normal" in2="BackgroundImageFix" result="effect1_dropShadow_1930_20"/>
<feBlend mode="normal" in="SourceGraphic" in2="effect1_dropShadow_1930_20" result="shape"/>
</filter>
<filter id="filter3_d_1930_20" x="30.3578" y="36.955" width="24.6293" height="27.7408" filterUnits="userSpaceOnUse" color-interpolation-filters="sRGB">
<feFlood flood-opacity="0" result="BackgroundImageFix"/>
<feColorMatrix in="SourceAlpha" type="matrix" values="0 0 0 0 0 0 0 0 0 0 0 0 0 0 0 0 0 0 127 0" result="hardAlpha"/>
<feOffset dy="4"/>
<feGaussianBlur stdDeviation="2"/>
<feColorMatrix type="matrix" values="0 0 0 0 0 0 0 0 0 0 0 0 0 0 0 0 0 0 0.25 0"/>
<feBlend mode="normal" in2="BackgroundImageFix" result="effect1_dropShadow_1930_20"/>
<feBlend mode="normal" in="SourceGraphic" in2="effect1_dropShadow_1930_20" result="shape"/>
</filter>
<filter id="filter4_d_1930_20" x="21" y="17" width="21" height="38" filterUnits="userSpaceOnUse" color-interpolation-filters="sRGB">
<feFlood flood-opacity="0" result="BackgroundImageFix"/>
<feColorMatrix in="SourceAlpha" type="matrix" values="0 0 0 0 0 0 0 0 0 0 0 0 0 0 0 0 0 0 127 0" result="hardAlpha"/>
<feOffset dy="4"/>
<feGaussianBlur stdDeviation="2"/>
<feColorMatrix type="matrix" values="0 0 0 0 0 0 0 0 0 0 0 0 0 0 0 0 0 0 0.25 0"/>
<feBlend mode="normal" in2="BackgroundImageFix" result="effect1_dropShadow_1930_20"/>
<feBlend mode="normal" in="SourceGraphic" in2="effect1_dropShadow_1930_20" result="shape"/>
</filter>
<clipPath id="clip0_1930_20">
<rect width="64" height="64" fill="white"/>
</clipPath>
</defs>
</svg>
