<svg xmlns="http://www.w3.org/2000/svg" data-name="Layer 1" width="744.79921" height="449.14098" viewBox="0 0 744.79921 449.14098" xmlns:xlink="http://www.w3.org/1999/xlink"><path d="M952.84016,674.57049c68.23434-120.69593-62.64082-182.50964-79.48628-55.05707-.85331-16.44794-1.757-33.16061-7.22088-48.69795-8.29741-32.23249-53.38462-55.58875-74.91959-22.961-11.38413,20.21687,3.71282,48.57678-9.37911,67.73424-8.25769-48.2147-78.26339-36.904-70.89191,11.4727,5.53385,23.24182,30.08972,36.76744,49.69088,47.28173Z" transform="translate(-227.60039 -225.42951)" fill="#f2f2f2"/><path d="M720.96979,597.8569c34.63662,11.23884,77.92186,30.17049,81.43333,71.55017.10081,1.64036,2.66806,1.65181,2.56656-.00053-.89755-14.61106-8.01809-27.98222-17.87815-38.55676-10.81047-11.59383-24.81936-19.51225-39.283-25.656C744.98184,604.5399,715.54582,590.61442,720.96979,597.8569Z" transform="translate(-227.60039 -225.42951)" fill="#fff"/><path d="M808.4778,537.334A233.05468,233.05468,0,0,1,841.218,670.24c-.09519,1.65007,2.47167,1.64459,2.56658,0a235.89158,235.89158,0,0,0-19.04295-106.84728c-1.63585-3.01175-14.83306-34.72773-16.26385-26.05873Z" transform="translate(-227.60039 -225.42951)" fill="#fff"/><path d="M934.0947,552.0766a374.88372,374.88372,0,0,0-30.95147,119.95646c-.14352,1.64514,2.42387,1.63551,2.56652,0a372.91417,372.91417,0,0,1,20.54019-93.5674c-.03047-3.36135,14.76269-30.64191,7.84476-26.389Z" transform="translate(-227.60039 -225.42951)" fill="#fff"/><path d="M636.80053,672.49459c19.53273-34.55037-17.93153-52.24513-22.75371-15.76062-.24426-4.70838-.503-9.49254-2.067-13.94025-2.37522-9.22686-15.28186-15.91281-21.44645-6.5728-3.25882,5.78727,1.06283,13.90557-2.68486,19.38957-2.36384-13.80192-22.40364-10.56413-20.29349,3.28417,1.58412,6.65319,8.61347,10.525,14.22449,13.53485Z" transform="translate(-227.60039 -225.42951)" fill="#f2f2f2"/><path d="M570.42542,650.53459c9.91506,3.21722,22.30588,8.63659,23.31107,20.48192.02886.46957.76376.47284.7347-.00016a18.06265,18.06265,0,0,0-5.11779-11.03724,32.36951,32.36951,0,0,0-11.24512-7.34427C577.2991,652.44766,568.87276,648.46136,570.42542,650.53459Z" transform="translate(-227.60039 -225.42951)" fill="#fff"/><path d="M595.47542,633.20932a66.714,66.714,0,0,1,9.37221,38.04561c-.02725.47235.70754.47078.7347,0a67.52614,67.52614,0,0,0-5.45122-30.586c-.46828-.86215-4.24611-9.94115-4.65569-7.45956Z" transform="translate(-227.60039 -225.42951)" fill="#fff"/><path d="M631.43446,637.42954a107.3139,107.3139,0,0,0-8.86015,34.33868c-.04109.47094.69385.46818.73469,0a106.75,106.75,0,0,1,5.87983-26.78456c-.00873-.96222,4.22595-8.77154,2.24563-7.55412Z" transform="translate(-227.60039 -225.42951)" fill="#fff"/><path d="M511.60039,244.42951h-283a1,1,0,0,1,0-2h283a1,1,0,0,1,0,2Z" transform="translate(-227.60039 -225.42951)" fill="#3f3d56"/><circle cx="225.79921" cy="17" r="17" fill="#f2b138"/><path d="M511.60039,308.42951h-283a1,1,0,0,1,0-2h283a1,1,0,0,1,0,2Z" transform="translate(-227.60039 -225.42951)" fill="#3f3d56"/><circle cx="67.79921" cy="81" r="17" fill="#f2b138"/><path d="M511.60039,372.42951h-283a1,1,0,0,1,0-2h283a1,1,0,0,1,0,2Z" transform="translate(-227.60039 -225.42951)" fill="#3f3d56"/><circle cx="134.79921" cy="145" r="17" fill="#f2b138"/><path d="M641.16479,382.596a11.25852,11.25852,0,0,1,.93585,1.50549l52.70668,5.92648,7.66556-10.35685,17.14236,9.52578-15.08983,25.15734-64.57279-16.94663a11.225,11.225,0,1,1,1.21217-14.81161Z" transform="translate(-227.60039 -225.42951)" fill="#ffb8b8"/><path d="M715.86957,398.20665a4.82738,4.82738,0,0,1-1.174-.73259L693.5124,379.62942a4.81188,4.81188,0,0,1-.30946-7.07655l19.22261-19.302a4.78746,4.78746,0,0,1,6.2374-.4968l14.53685,10.55607a4.81475,4.81475,0,0,1,1.523,5.95108L722.147,395.85082a4.817,4.817,0,0,1-6.27739,2.35583Z" transform="translate(-227.60039 -225.42951)" fill="#f2b138"/><polygon points="570.892 425.157 558.24 428.599 538.942 381.438 557.614 376.358 570.892 425.157" fill="#ffb8b8"/><path d="M776.71153,651.36427H803.0324a0,0,0,0,1,0,0v15.92117a0,0,0,0,1,0,0H761.82467a0,0,0,0,1,0,0v-1.03431A14.88686,14.88686,0,0,1,776.71153,651.36427Z" transform="matrix(0.96492, -0.26254, 0.26254, 0.96492, -373.25161, 3.11506)" fill="#2f2e41"/><polygon points="462.735 434.811 449.624 434.81 443.386 384.237 462.738 384.238 462.735 434.811" fill="#ffb8b8"/><path d="M439.22389,431.06387h26.32087a0,0,0,0,1,0,0V446.985a0,0,0,0,1,0,0H424.337a0,0,0,0,1,0,0v-1.03431A14.88686,14.88686,0,0,1,439.22389,431.06387Z" fill="#2f2e41"/><circle cx="710.08723" cy="300.06218" r="26.26745" transform="translate(-231.79666 364.56417) rotate(-45)" fill="#ffb8b8"/><path d="M689.53284,624.18191H671.61518a4.82663,4.82663,0,0,1-4.80794-4.516c-5.339-84.87512-2.216-145.758,9.82817-191.60036a5.00167,5.00167,0,0,1,.195-.59009l.95955-2.399a4.79,4.79,0,0,1,4.46878-3.02565H719.1043a4.80484,4.80484,0,0,1,3.65413,1.68045l5.00456,5.83931c.09765.11384.189.22977.277.352,22.56711,31.4702,42.79109,92.99542,66.21384,175.69189a4.79653,4.79653,0,0,1-3.164,5.89988l-19.25581,6.162a4.83851,4.83851,0,0,1-5.802-2.49405L716.06323,511.54217a3.74336,3.74336,0,0,0-7.08032,1.11856L694.3011,620.021A4.83105,4.83105,0,0,1,689.53284,624.18191Z" transform="translate(-227.60039 -225.42951)" fill="#2f2e41"/><path d="M725.7431,429.99768c-.0504,0-.10053-.001-.15118-.00209L680.836,428.5825a4.797,4.797,0,0,1-4.62936-4.22882c-5.6735-45.92485,9.8864-58.228,16.83957-61.38526a3.7,3.7,0,0,0,2.152-2.93375l.60158-4.8137a4.79509,4.79509,0,0,1,.95093-2.33739c10.90183-14.12253,25.78808-18.64483,33.6914-20.083a4.80525,4.80525,0,0,1,5.61606,4.11707l.90133,6.91191a3.80783,3.80783,0,0,0,.76294,1.80892c22.736,29.7229-2.593,73.60906-7.90149,82.1043h0A4.82165,4.82165,0,0,1,725.7431,429.99768Z" transform="translate(-227.60039 -225.42951)" fill="#f2b138"/><path d="M721.56859,495.27364a11.48907,11.48907,0,0,0,1.50421-17.55277l8.31333-100.39328L706.634,380.7327l-.4709,97.5412a11.55133,11.55133,0,0,0,15.40546,16.99974Z" transform="translate(-227.60039 -225.42951)" fill="#ffb8b8"/><path d="M733.00358,391.78372a4.82707,4.82707,0,0,1-1.36948-.19844L705.06193,383.77a4.81187,4.81187,0,0,1-3.1301-6.35419l9.83365-25.40426a4.78747,4.78747,0,0,1,5.51057-2.964l17.55525,3.81628a4.81475,4.81475,0,0,1,3.78834,4.83562l-.81673,29.40226a4.817,4.817,0,0,1-4.79933,4.6821Z" transform="translate(-227.60039 -225.42951)" fill="#f2b138"/><path d="M954.61614,674.42951h-381a1,1,0,0,1,0-2h381a1,1,0,0,1,0,2Z" transform="translate(-227.60039 -225.42951)" fill="#3f3d56"/><path d="M738.98819,283.72583a108.93259,108.93259,0,0,1-4.30468-18.14537c-.28712-3.58653.63165-7.44558,3.24355-9.92018,4.88807-4.6311,13.19293-2.42535,18.30474,1.95753,7.38773,6.33426,11.07227,16.06872,12.46474,25.7s.77981,19.42539,1.115,29.15108,1.72618,19.72593,6.68451,28.09949,14.15945,14.801,23.86479,14.08837a16.79538,16.79538,0,0,0,10.51373-4.4556,12.19082,12.19082,0,0,0,3.66134-10.586c4.96049,8.8824,2.44591,20.92093-4.9531,27.90363s-18.7801,8.95665-28.50716,5.97536S763.3429,363.03748,758.561,354.05766s-6.53421-19.35318-6.28026-29.52368c.195-7.81016,1.52262-15.68424.20281-23.38454s-6.139-15.51892-13.73829-17.33222Z" transform="translate(-227.60039 -225.42951)" fill="#2f2e41"/><path d="M704.8618,293.84966c-1.29565,4.32811-6.25148,6.997-10.70967,6.265s-8.1242-4.40348-9.47888-8.71348a17.93824,17.93824,0,0,1,1.40188-13.15052,20.4785,20.4785,0,0,1,11.71739-10.43688,16.814,16.814,0,0,1,15.28884,2.443,5.62277,5.62277,0,0,1,3.9293-4.10922,10.7448,10.7448,0,0,1,5.89659.087,24.29568,24.29568,0,0,1,13.52231,9.83738,39.53547,39.53547,0,0,1,6.12865,15.79793c1.50872,8.46858.95223,17.7224-3.804,24.88978s-14.48686,11.39952-22.38095,7.98245c-.49224-2.51642.67385-5.05027,2.02294-7.23079s2.948-4.3047,3.46623-6.8159-.4753-5.58288-2.90435-6.40411c-2.07226-.70061-4.28167.43447-6.46487.57154a7.08406,7.08406,0,0,1-6.79537-10.20743Z" transform="translate(-227.60039 -225.42951)" fill="#2f2e41"/></svg>